<?xml version="1.0" standalone="no"?>
<!DOCTYPE svg PUBLIC "-//W3C//DTD SVG 20010904//EN"
 "http://www.w3.org/TR/2001/REC-SVG-20010904/DTD/svg10.dtd">
<svg version="1.0" xmlns="http://www.w3.org/2000/svg"
 width="960.000000pt" height="1280.000000pt" viewBox="0 0 960.000000 1280.000000"
 preserveAspectRatio="xMidYMid meet">

<g transform="translate(0.000000,1280.000000) scale(0.100000,-0.100000)"
fill="#000000" stroke="none">
<path d="M6650 11865 c0 -8 4 -15 10 -15 5 0 7 7 4 15 -4 8 -8 15 -10 15 -2 0
-4 -7 -4 -15z"/>
<path d="M6426 11861 c-4 -6 -12 -9 -17 -6 -5 4 -19 -1 -31 -9 -12 -9 -35 -16
-51 -16 -16 0 -35 -7 -43 -15 -15 -14 -39 -19 -76 -16 -10 1 -18 -3 -18 -9 0
-6 -4 -9 -9 -6 -5 4 -11 0 -14 -6 -3 -10 -7 -10 -18 -1 -11 9 -19 8 -33 -3
-16 -11 -22 -11 -28 -1 -6 8 -10 9 -15 1 -14 -18 -46 -26 -55 -12 -6 10 -8 10
-8 -1 0 -11 -4 -9 -15 5 -8 10 -15 14 -15 7 0 -7 -7 -10 -15 -7 -9 4 -15 0
-15 -9 0 -10 -8 -13 -27 -9 -21 4 -25 2 -20 -11 4 -11 2 -14 -9 -10 -27 10
-59 -6 -73 -39 -9 -20 -16 -27 -19 -18 -3 8 0 16 6 18 6 2 8 10 5 18 -4 11 -9
8 -19 -11 -7 -14 -12 -31 -10 -38 1 -7 1 -9 -1 -4 -10 16 -24 6 -18 -13 3 -11
2 -20 -4 -20 -19 0 -23 21 -8 44 11 16 13 26 5 34 -15 15 -38 4 -31 -15 5 -12
1 -14 -16 -8 -15 4 -29 1 -41 -10 -10 -9 -23 -14 -29 -11 -5 3 -17 -1 -25 -10
-9 -9 -16 -11 -16 -4 0 6 -5 8 -12 4 -7 -5 -35 -9 -62 -11 -27 -2 -54 -8 -61
-13 -7 -6 -17 -10 -21 -9 -5 1 -11 1 -14 -1 -3 -1 -22 -3 -44 -5 -38 -3 -60
-20 -49 -38 4 -6 -5 -7 -21 -3 -24 6 -27 4 -21 -14 8 -25 -10 -27 -24 -2 -9
15 -12 15 -21 2 -9 -13 -11 -13 -19 0 -8 12 -13 11 -30 -9 -12 -13 -21 -19
-21 -12 0 8 -5 9 -19 1 -11 -5 -30 -10 -43 -10 -13 0 -32 -6 -43 -13 -11 -7
-42 -22 -70 -32 -70 -25 -139 -56 -145 -65 -3 -4 -27 -18 -55 -31 -27 -12 -52
-26 -55 -30 -3 -3 -18 -14 -35 -23 -16 -9 -44 -25 -62 -36 -19 -11 -35 -15
-38 -10 -8 13 -25 13 -25 -1 0 -17 -23 -35 -53 -43 -15 -3 -27 -11 -27 -16 0
-5 -19 -18 -42 -29 -45 -22 -83 -64 -73 -81 4 -6 3 -9 -2 -8 -4 1 -18 -3 -29
-10 -12 -6 -25 -8 -29 -4 -5 4 -5 2 -1 -5 4 -7 -2 -14 -15 -18 -21 -7 -99 -84
-99 -98 0 -5 -4 -5 -10 -2 -9 6 -78 -59 -134 -128 -17 -20 -33 -34 -38 -31 -4
3 -8 1 -8 -4 0 -5 -29 -41 -65 -80 -36 -38 -82 -95 -102 -125 -46 -67 -90
-122 -123 -157 -13 -14 -23 -33 -21 -43 1 -12 -5 -20 -18 -24 -12 -3 -21 -14
-21 -24 0 -11 -5 -19 -10 -19 -6 0 -26 -24 -45 -54 -18 -29 -81 -105 -139
-169 -58 -63 -106 -122 -106 -131 0 -8 -5 -18 -10 -21 -6 -4 -8 -10 -5 -15 3
-4 -2 -13 -10 -20 -8 -7 -15 -19 -15 -26 0 -17 -12 -18 -29 -1 -10 10 -11 9
-6 -5 4 -11 -1 -23 -14 -35 -12 -9 -21 -23 -21 -30 0 -7 -7 -13 -15 -13 -9 0
-15 -9 -15 -25 0 -24 -4 -27 -40 -29 -8 -1 -19 -11 -25 -23 -5 -13 -13 -23
-17 -23 -4 0 -18 -12 -32 -27 -19 -20 -22 -29 -13 -35 9 -6 9 -8 -2 -8 -9 0
-11 -8 -7 -24 4 -16 0 -29 -14 -41 -19 -18 -20 -17 -20 3 0 27 -12 28 -35 2
-15 -17 -16 -20 -3 -15 12 5 16 0 14 -19 0 -14 -4 -26 -7 -26 -3 0 -11 -12
-18 -26 -7 -17 -17 -24 -26 -20 -10 4 -15 -1 -15 -14 0 -11 -4 -21 -10 -21 -5
-1 -16 -2 -22 -3 -7 0 -14 -10 -16 -21 -5 -25 -31 -55 -45 -52 -15 3 -39 -91
-32 -124 4 -18 0 -31 -15 -44 -20 -18 -20 -18 -20 3 0 12 -2 22 -5 22 -14 0
-54 -57 -55 -77 0 -12 -12 -31 -27 -43 -26 -20 -26 -21 -5 -17 27 6 29 -4 2
-21 -11 -7 -20 -19 -20 -27 0 -8 -4 -15 -10 -15 -5 0 -10 -9 -10 -20 0 -12
-10 -31 -22 -44 -13 -12 -35 -40 -49 -62 -15 -21 -40 -47 -58 -57 -30 -17 -31
-17 -25 0 4 10 -8 3 -27 -17 -18 -19 -34 -41 -35 -48 -2 -8 -9 -21 -16 -30 -8
-10 -23 -34 -33 -56 -11 -21 -30 -46 -43 -56 -12 -10 -22 -24 -22 -32 0 -7
-10 -18 -22 -23 -13 -6 -23 -17 -23 -25 0 -8 -4 -15 -10 -15 -24 -1 -43 -25
-82 -105 -23 -47 -47 -100 -54 -117 -6 -18 -15 -33 -20 -33 -5 0 -18 -13 -28
-30 -10 -16 -35 -48 -55 -70 -31 -34 -35 -44 -25 -56 6 -8 10 -16 8 -17 -2 -2
-20 -16 -39 -31 -32 -26 -35 -27 -41 -10 -6 15 -8 12 -8 -11 0 -16 -1 -40 -2
-52 0 -16 -6 -23 -21 -23 -23 0 -47 -26 -48 -51 0 -8 -12 -26 -26 -40 -14 -13
-32 -36 -40 -51 -8 -16 -19 -28 -25 -28 -6 0 -7 4 -4 10 3 5 0 7 -9 4 -20 -8
-32 37 -17 64 6 11 8 27 6 35 -3 7 12 103 34 213 65 325 63 310 42 352 -20 38
-114 134 -166 169 -54 37 -153 61 -241 59 -44 -1 -85 -5 -92 -10 -6 -4 -18 -4
-25 1 -6 4 -23 9 -37 10 -47 5 -51 6 -46 20 3 7 -1 13 -9 13 -8 0 -15 5 -15
10 0 6 -7 13 -17 17 -9 3 -40 21 -70 39 -63 38 -168 60 -235 50 -60 -9 -163
-59 -181 -88 -9 -13 -25 -72 -37 -133 -12 -60 -26 -114 -30 -119 -5 -5 -26 5
-48 23 -46 36 -56 38 -47 11 7 -23 -10 -28 -19 -5 -3 8 -23 18 -46 21 -22 4
-40 10 -40 13 0 4 -8 7 -17 7 -16 0 -18 -11 -16 -111 l2 -110 84 -80 c46 -44
96 -98 110 -120 32 -49 67 -157 67 -207 0 -21 6 -57 14 -80 8 -24 18 -74 22
-113 4 -46 16 -90 35 -127 27 -53 48 -116 87 -265 16 -58 26 -73 147 -203 71
-77 140 -158 152 -179 21 -37 21 -40 4 -55 -10 -9 -22 -16 -28 -16 -5 0 -18
-9 -28 -20 -13 -14 -15 -23 -7 -33 14 -16 6 -28 -38 -54 -20 -12 -46 -33 -59
-47 -13 -14 -28 -23 -33 -20 -5 3 -27 -6 -49 -21 -41 -29 -49 -38 -24 -29 17
7 21 -11 5 -21 -18 -11 -11 -23 10 -18 14 4 20 0 20 -11 0 -11 -7 -16 -17 -14
-22 3 -83 -40 -83 -59 0 -7 -4 -13 -10 -13 -5 0 -25 -13 -43 -30 -19 -16 -39
-30 -44 -30 -4 0 -30 -18 -57 -40 -26 -22 -52 -40 -57 -40 -5 0 -6 -6 -3 -13
3 -9 -23 -28 -78 -57 -46 -23 -89 -47 -96 -52 -19 -16 -89 -54 -167 -91 -38
-19 -76 -41 -84 -50 -7 -9 -21 -17 -30 -17 -22 0 -76 -61 -61 -70 6 -4 -3 -7
-19 -7 -55 0 -61 -13 -61 -145 0 -112 1 -118 18 -109 10 5 43 13 73 16 30 3
76 11 103 17 60 13 146 16 146 5 0 -5 8 -6 18 -3 9 3 45 2 80 -3 35 -4 65 -4
68 1 3 4 17 7 32 7 17 -1 21 -3 10 -6 -10 -2 -18 -9 -18 -14 0 -12 27 -12 35
1 4 7 12 7 25 0 24 -13 31 -13 28 1 -6 24 22 19 32 -5 14 -37 55 -45 79 -15
l19 24 25 -23 c16 -15 27 -20 32 -13 10 17 25 13 25 -6 0 -12 3 -14 11 -6 7 7
21 8 40 3 20 -6 29 -5 29 2 0 7 11 1 25 -12 l24 -23 -4 22 c-3 14 0 21 8 18 7
-2 12 -10 12 -18 0 -27 26 -32 48 -8 l21 23 6 -24 c3 -13 11 -25 18 -28 7 -2
10 2 6 12 -5 12 -2 15 12 9 12 -4 15 -3 10 5 -4 7 -2 12 4 12 6 0 14 -8 18
-17 8 -21 33 -24 45 -6 6 9 16 9 45 -1 20 -7 44 -11 52 -8 9 3 5 -6 -9 -21
l-24 -26 23 4 c13 3 28 9 34 15 5 5 14 10 18 10 13 0 9 -28 -4 -33 -9 -4 -9
-6 1 -6 8 -1 24 7 35 17 20 16 20 16 7 0 -15 -21 -2 -24 18 -5 11 9 13 9 7 0
-5 -10 6 -13 46 -13 29 0 59 -4 67 -9 9 -6 19 -5 27 3 13 14 74 9 74 -5 0 -5
4 -9 10 -9 5 0 7 6 4 14 -3 8 0 17 7 22 7 4 10 3 6 -3 -4 -6 1 -17 10 -24 12
-10 14 -10 9 -1 -4 7 -2 12 8 12 8 0 18 -5 21 -10 5 -8 12 -7 22 1 12 10 17
10 25 -2 7 -11 9 -9 5 8 -3 13 0 20 7 18 6 -2 27 -6 47 -9 20 -3 43 -8 52 -12
11 -4 17 -1 17 7 0 10 3 10 12 1 7 -7 17 -8 30 -1 14 8 18 6 18 -6 0 -13 8
-16 32 -13 28 2 33 0 30 -17 -2 -18 -1 -19 11 -3 12 16 14 16 27 -3 18 -24 26
-24 33 1 4 14 11 18 30 14 14 -2 29 1 32 6 5 8 11 7 21 -1 11 -9 14 -8 14 6 0
20 55 87 64 78 3 -4 6 3 6 15 0 12 3 22 8 22 11 0 34 -16 33 -24 -2 -16 0 -18
13 -7 7 6 21 9 30 5 9 -3 16 -1 16 6 0 6 5 8 11 5 6 -4 8 -14 5 -22 -5 -11 -1
-13 17 -7 12 4 25 11 28 15 3 5 13 3 23 -4 20 -14 29 -66 15 -84 -7 -7 -6 -14
1 -18 5 -3 10 -15 10 -26 0 -10 5 -19 10 -19 6 0 10 -10 9 -22 0 -13 -3 -17
-6 -10 -7 17 -20 15 -20 -3 0 -8 5 -15 10 -15 10 0 4 -56 -19 -185 -7 -44 -21
-143 -29 -220 -9 -77 -30 -234 -46 -350 -17 -115 -34 -241 -39 -280 -5 -38
-16 -106 -25 -150 -9 -44 -19 -100 -24 -125 -4 -25 -13 -56 -18 -70 -6 -14 -8
-30 -6 -37 2 -6 -1 -14 -6 -18 -6 -3 -11 -17 -11 -29 0 -13 -7 -29 -16 -37 -8
-7 -13 -21 -11 -31 3 -10 1 -18 -5 -18 -6 0 -8 -6 -5 -13 7 -17 -14 -97 -47
-179 -14 -35 -26 -67 -26 -71 0 -28 -175 -371 -210 -412 -10 -11 -21 -30 -25
-43 -3 -12 -15 -27 -26 -33 -11 -5 -17 -14 -13 -20 8 -14 -15 -39 -30 -33 -8
3 -12 -5 -12 -23 1 -22 -4 -28 -19 -28 -11 1 -28 -12 -38 -27 -11 -15 -23 -25
-28 -22 -5 3 -9 0 -9 -6 0 -6 -5 -8 -11 -5 -6 4 -21 -2 -33 -14 -18 -17 -28
-20 -47 -12 -13 5 -18 10 -11 10 6 1 12 6 12 11 0 7 -7 7 -20 0 -23 -12 -40
-6 -40 16 0 8 -4 14 -9 14 -5 0 -11 10 -13 22 -2 13 -9 22 -17 20 -7 -1 -11 3
-8 10 2 7 -4 24 -15 37 -14 19 -16 26 -6 33 9 5 8 8 -5 8 -10 0 -16 4 -13 9 3
5 -1 14 -10 22 -26 22 -37 49 -24 64 7 9 8 15 0 20 -5 3 -10 0 -10 -7 0 -7 -9
-2 -20 12 -11 14 -18 30 -15 37 2 6 -5 23 -17 38 -12 15 -18 34 -15 46 3 13 0
22 -10 26 -10 4 -13 13 -9 29 4 14 2 24 -4 24 -6 0 -8 10 -5 23 4 15 1 28 -9
36 -9 7 -13 17 -10 22 3 5 0 17 -5 27 -7 13 -6 23 2 32 9 10 9 11 -2 5 -11 -6
-13 -1 -9 24 4 24 1 31 -9 26 -10 -3 -13 1 -8 14 3 11 -1 25 -10 34 -8 9 -15
25 -15 35 0 11 -6 23 -12 26 -10 5 -10 7 0 12 15 7 16 44 1 44 -6 0 -9 -6 -6
-14 3 -8 -1 -20 -9 -26 -11 -10 -14 -9 -14 4 0 12 -5 16 -19 11 -14 -4 -20 1
-25 19 -4 18 -11 23 -22 19 -9 -3 -20 0 -25 8 -15 24 -11 -19 5 -54 33 -75 80
-246 80 -294 1 -28 4 -49 9 -46 4 2 7 -4 8 -14 0 -10 2 -25 5 -33 2 -8 7 -31
10 -50 4 -19 10 -37 13 -40 3 -3 17 -32 30 -65 14 -33 39 -92 58 -131 18 -39
33 -75 33 -81 0 -6 11 -30 24 -54 35 -62 67 -168 65 -215 -2 -46 10 -86 22
-78 5 3 9 -1 9 -9 0 -8 -8 -18 -17 -22 -17 -6 -17 -7 1 -21 12 -8 15 -14 7
-14 -9 0 -11 -9 -7 -30 3 -17 9 -45 12 -62 4 -18 11 -36 16 -39 6 -4 3 -17 -7
-33 -10 -14 -13 -26 -8 -26 10 0 13 -13 14 -67 1 -18 6 -33 11 -33 6 0 7 -9 4
-22 -4 -13 -9 -32 -10 -43 -2 -11 -4 -20 -5 -20 -1 0 -4 -19 -6 -42 -2 -33 0
-41 11 -36 18 7 30 -25 15 -40 -9 -9 -11 -8 -5 7 5 14 3 17 -7 14 -15 -5 -17
-46 -4 -92 5 -20 5 -27 -3 -22 -6 4 -5 -5 3 -21 9 -17 11 -31 5 -38 -5 -6 -7
-35 -3 -63 4 -41 3 -52 -8 -52 -9 0 -10 -3 -3 -8 14 -9 24 -61 13 -68 -5 -3
-5 -13 1 -23 5 -10 7 -31 4 -46 -3 -15 1 -34 7 -42 8 -9 9 -17 3 -21 -11 -7
-12 -58 -1 -68 3 -3 3 -12 1 -19 -3 -7 -1 -22 4 -32 5 -10 6 -27 2 -38 -5 -13
-2 -24 9 -33 10 -8 10 -11 2 -6 -11 6 -13 3 -6 -12 4 -10 8 -29 8 -41 -1 -13
3 -23 8 -23 6 0 6 -8 0 -18 -7 -13 -6 -23 2 -32 7 -7 7 -10 1 -7 -7 4 -11 -8
-10 -36 1 -31 5 -41 15 -39 11 2 12 0 3 -11 -7 -8 -9 -17 -5 -21 10 -10 11
-76 1 -76 -4 0 -8 -5 -8 -11 0 -5 5 -7 10 -4 6 3 10 0 10 -9 0 -8 6 -17 13
-19 7 -3 5 -6 -5 -6 -10 -1 -18 -8 -18 -17 0 -10 5 -12 12 -7 7 4 5 -6 -6 -21
-10 -16 -12 -25 -6 -21 10 6 11 1 7 -17 -5 -17 -2 -30 7 -37 13 -11 16 -84 4
-107 -5 -11 16 -77 23 -70 3 3 3 -10 1 -29 -2 -19 -9 -35 -16 -36 -6 0 -2 -4
10 -9 18 -7 20 -15 17 -53 -3 -32 1 -49 12 -61 11 -11 12 -16 4 -16 -7 0 -9
-3 -6 -7 4 -3 2 -13 -5 -20 -8 -11 -9 -16 -1 -21 6 -4 10 -27 9 -52 -3 -54 13
-100 34 -100 9 -1 6 -6 -9 -14 l-24 -14 21 -6 c17 -6 22 -15 22 -41 0 -18 5
-35 12 -37 7 -3 8 -10 4 -17 -7 -11 -10 -11 -18 0 -5 9 -6 3 -2 -16 4 -16 12
-33 18 -37 6 -4 18 -12 26 -17 8 -6 11 -13 7 -18 -5 -4 -12 -1 -18 7 -8 13
-10 13 -19 0 -13 -20 -7 -36 13 -32 8 1 18 -2 22 -8 3 -6 0 -7 -9 -4 -23 9
-21 -54 1 -73 10 -8 13 -12 7 -9 -16 8 -25 -19 -12 -32 14 -14 12 -82 -2 -96
-6 -6 0 -16 20 -28 29 -17 133 -18 2662 -18 2493 0 2632 1 2645 18 14 16 14
16 9 0 -5 -16 3 -18 81 -18 75 0 84 2 73 15 -9 11 -9 15 -1 15 6 0 14 -7 17
-15 8 -21 32 -19 37 3 4 16 5 16 6 0 1 -18 41 -26 41 -9 0 5 8 11 18 14 16 4
16 4 0 10 -10 4 -25 9 -33 12 -13 4 -14 9 -4 26 10 19 9 21 -5 16 -9 -4 -15
-2 -13 5 1 6 -3 12 -10 15 -8 3 -11 -3 -8 -15 2 -14 -1 -19 -13 -17 -9 1 -22
-1 -28 -6 -5 -5 -23 -2 -39 7 -15 8 -30 12 -33 10 -2 -3 -16 4 -30 14 -13 11
-33 20 -44 20 -15 0 -18 5 -13 21 4 12 2 24 -4 28 -5 4 -7 18 -4 31 5 19 8 21
12 8 5 -15 9 -15 31 3 14 12 19 18 12 14 -7 -4 -22 1 -33 11 -19 17 -19 17 2
28 12 6 34 27 48 46 14 19 19 29 10 22 -13 -10 -18 -10 -27 1 -9 11 -5 21 19
45 17 18 36 29 41 26 6 -4 14 0 19 7 23 37 0 38 -45 4 -18 -14 -38 -25 -44
-25 -11 0 -16 -14 -13 -33 1 -5 -3 -6 -8 -3 -5 3 -14 -1 -20 -8 -8 -9 -8 -16
-2 -20 6 -4 8 -13 4 -22 -3 -8 -6 -29 -7 -47 -2 -22 -7 -32 -18 -31 -12 1 -14
-7 -12 -36 3 -40 -15 -68 -37 -54 -8 4 -9 3 -5 -4 4 -7 1 -12 -8 -12 -17 0
-31 34 -20 51 4 8 3 9 -5 5 -6 -4 -17 -1 -24 6 -18 17 -18 48 0 41 7 -3 13 2
13 11 0 9 -4 16 -10 16 -5 0 -7 7 -4 15 4 8 12 15 19 15 13 0 74 29 65 31 -3
0 -14 2 -25 4 -11 3 -26 -3 -33 -13 -10 -14 -14 -14 -21 -3 -5 7 -14 10 -20 7
-6 -4 -14 0 -17 8 -8 20 -30 21 -38 1 -3 -8 -1 -15 4 -15 6 0 10 -5 10 -10 0
-12 -49 -5 -62 8 -16 16 -5 57 14 56 10 -1 15 2 12 7 -3 5 2 9 10 9 8 0 18 -4
21 -10 15 -24 32 -9 31 27 -1 33 4 41 49 75 36 27 50 45 50 62 0 27 20 54 32
43 4 -4 1 -13 -5 -19 -19 -19 -14 -26 13 -20 14 2 34 15 44 28 12 15 33 26 55
28 20 3 41 8 46 11 6 4 23 -3 39 -14 30 -22 57 -28 46 -11 -3 5 -3 21 1 35 5
20 9 23 20 14 8 -6 22 -8 31 -5 10 4 5 -5 -12 -18 -16 -14 -25 -25 -18 -26 6
0 27 14 45 31 18 18 27 28 20 24 -7 -3 -19 -1 -27 5 -8 6 -19 9 -25 5 -5 -3
-10 1 -10 9 0 10 -6 13 -15 10 -8 -4 -15 -10 -15 -14 0 -5 -5 -21 -10 -36 -9
-24 -13 -26 -25 -13 -8 8 -16 29 -18 48 -5 46 -26 55 -54 25 -24 -26 -30 -40
-14 -29 6 3 9 -3 8 -14 -1 -15 -4 -17 -19 -7 -13 8 -23 8 -37 -1 -17 -11 -19
-9 -17 18 3 34 -4 36 -29 9 -14 -15 -21 -17 -32 -9 -9 9 -17 8 -27 0 -15 -13
-78 -12 -70 1 3 4 -4 17 -15 29 -16 18 -23 20 -35 10 -22 -18 -30 5 -12 31 20
29 20 48 0 48 -10 0 -14 -7 -12 -22 4 -27 -29 -48 -73 -48 -31 0 -36 9 -17 28
7 7 9 12 4 12 -4 0 -1 7 8 15 8 8 19 15 25 15 8 0 7 7 -1 20 -18 28 3 50 28
29 9 -8 27 -14 38 -15 12 0 31 -6 44 -12 18 -11 22 -10 22 3 0 8 -7 15 -15 15
-9 0 -19 9 -23 20 -8 20 -8 20 -28 1 -20 -18 -21 -18 -32 0 -9 15 -9 17 2 13
8 -3 17 -1 21 5 3 6 1 11 -4 11 -6 0 -11 5 -11 11 0 8 4 8 15 -1 11 -10 18 -9
30 4 20 20 23 20 41 1 9 -8 24 -15 34 -15 10 0 25 -9 33 -21 9 -13 17 -16 22
-10 3 6 2 11 -4 11 -6 0 -8 6 -5 14 3 8 0 24 -6 36 -11 20 -10 21 9 15 12 -3
30 1 46 11 24 16 27 16 45 -1 10 -9 24 -14 30 -10 9 6 9 2 1 -13 -19 -35 -13
-42 24 -26 28 12 33 12 29 0 -3 -7 2 -16 10 -19 9 -4 16 -13 16 -22 0 -8 7
-15 16 -15 9 0 23 -8 29 -17 13 -17 14 -17 33 0 20 18 40 8 27 -13 -3 -5 -1
-10 4 -10 6 0 11 4 11 8 0 7 34 8 50 2 3 -1 8 -2 13 -1 4 0 7 -6 7 -14 0 -12
8 -14 38 -9 20 3 41 8 46 12 5 3 6 -1 1 -8 -5 -9 -2 -10 13 -6 11 4 23 3 26
-3 3 -5 15 -7 27 -4 19 5 17 8 -17 36 -20 17 -44 32 -53 32 -41 4 -102 30
-123 52 l-22 24 37 37 37 37 56 -30 c31 -16 66 -39 77 -51 12 -11 44 -31 70
-43 32 -16 46 -28 43 -37 -3 -9 2 -14 14 -14 10 0 25 -8 32 -18 14 -19 98 -80
138 -100 37 -19 55 -35 63 -54 9 -24 -10 -23 -48 2 -21 14 -33 16 -42 8 -10
-8 -13 -6 -13 7 0 23 -66 85 -91 85 -10 0 -19 4 -19 9 0 5 -12 9 -28 9 -15 -1
-38 2 -52 6 -23 6 -23 5 8 -22 34 -30 42 -48 17 -38 -8 3 -22 3 -30 0 -13 -5
-13 -8 1 -21 8 -8 21 -12 29 -9 18 6 101 -28 107 -44 2 -6 12 -13 23 -15 11
-2 21 -4 22 -4 1 -1 -2 -12 -7 -26 -8 -22 -6 -27 20 -40 34 -17 50 -19 50 -5
0 6 -7 10 -15 10 -19 0 -20 39 -2 46 19 7 69 -14 62 -26 -3 -5 0 -7 8 -4 8 3
18 0 22 -5 3 -6 10 -9 15 -6 4 3 13 -2 20 -10 7 -8 18 -15 24 -15 18 -1 56
-37 56 -53 0 -17 24 -39 34 -32 3 3 2 -1 -4 -7 -15 -18 -12 -31 5 -24 8 3 15
1 15 -4 0 -6 3 -9 8 -9 20 3 32 -2 32 -16 0 -8 4 -15 9 -15 11 0 8 -41 -4 -60
-5 -9 -4 -11 3 -6 7 4 20 2 29 -3 10 -6 14 -11 8 -11 -5 0 1 -7 13 -16 12 -8
26 -12 32 -9 5 3 7 -9 4 -31 -4 -32 -2 -35 11 -24 14 11 17 10 22 -8 3 -12 9
-22 14 -22 5 0 9 -7 9 -15 0 -8 5 -15 10 -15 6 0 10 -5 10 -11 0 -7 10 -31 22
-55 l22 -44 77 0 c70 0 78 2 72 18 -3 9 -10 22 -15 29 -6 7 -7 17 -4 22 4 5 1
30 -6 56 -9 34 -14 41 -19 28 -6 -17 -7 -17 -15 1 -5 13 -3 21 4 24 16 5 15
32 -3 74 -12 31 -22 79 -24 126 -1 7 -5 10 -11 7 -5 -3 -10 3 -10 13 0 25 -45
164 -71 220 -11 24 -16 48 -13 54 4 7 2 8 -5 4 -8 -6 -10 -1 -5 18 4 16 0 33
-10 48 l-16 22 0 -27 0 -28 -45 38 c-25 20 -45 43 -45 50 0 15 -17 26 -44 27
-11 1 -21 8 -21 16 0 9 -8 14 -18 12 -9 -2 -17 2 -17 8 0 5 -6 10 -14 10 -8 0
-22 7 -30 16 -9 8 -20 13 -24 10 -5 -3 -15 6 -22 19 -7 14 -17 25 -21 25 -5 0
-23 12 -41 27 -40 34 -73 53 -92 53 -7 0 -19 7 -26 15 -7 9 -20 15 -29 14 -27
-2 -45 1 -38 7 11 12 -21 34 -39 27 -14 -5 -16 -2 -12 15 4 14 0 23 -11 27 -9
3 -16 5 -16 3 -1 -2 -13 5 -29 15 -15 10 -30 16 -33 14 -2 -3 -13 3 -24 14
-10 10 -26 19 -34 19 -8 0 -15 7 -15 15 0 8 -9 15 -20 15 -11 0 -20 -4 -20
-10 0 -15 -29 -12 -45 4 -8 7 -12 16 -9 18 2 3 -11 4 -28 3 -18 -1 -43 4 -55
12 -12 8 -27 12 -33 8 -5 -3 -10 -2 -10 2 0 13 -256 61 -266 50 -3 -3 -29 4
-57 16 -29 11 -78 21 -112 22 -52 1 -60 4 -61 21 -2 34 -4 37 -17 25 -10 -8
-17 -7 -25 1 -6 6 -30 11 -54 11 -56 -1 -61 3 -43 31 16 25 9 42 -10 26 -9 -7
-16 -5 -26 7 -7 10 -9 15 -5 11 11 -9 63 21 70 39 7 17 -6 17 -23 1 -10 -11
-16 -8 -32 12 -12 14 -18 20 -15 14 9 -18 -17 -46 -36 -39 -26 10 -29 34 -7
53 23 20 41 22 51 7 4 -5 8 0 8 12 0 17 -4 20 -21 16 -16 -4 -20 -2 -17 8 3 8
11 14 19 14 8 0 16 11 17 24 2 13 12 26 23 28 10 3 19 12 19 20 0 8 5 11 13 7
6 -4 9 -3 4 1 -4 5 7 24 25 42 22 23 27 33 16 33 -8 0 -26 -13 -39 -28 -13
-16 -29 -32 -36 -35 -17 -10 7 63 29 87 23 25 23 39 0 25 -17 -11 -42 -53 -42
-72 0 -5 -6 -15 -14 -22 -24 -25 -29 13 -6 45 22 31 41 128 22 117 -5 -4 -12
-1 -15 5 -7 21 12 48 33 48 11 0 27 11 36 25 9 14 19 23 22 21 7 -8 31 20 42
48 5 14 14 26 20 26 7 0 8 -6 0 -19 -19 -36 -10 -46 13 -14 12 18 34 35 49 38
15 4 31 11 34 17 4 7 2 8 -4 4 -7 -4 -12 -2 -12 3 0 8 -7 7 -20 -1 -22 -14
-30 -9 -33 20 0 12 -6 18 -14 15 -8 -3 -13 3 -13 16 0 12 5 21 10 21 6 0 10
-4 10 -10 0 -5 5 -10 11 -10 6 0 8 9 4 23 -3 12 -3 18 2 12 18 -22 32 -12 52
35 11 26 33 58 48 70 16 12 28 27 29 33 1 12 9 36 24 72 20 47 22 65 6 65 -9
0 -16 -5 -16 -11 0 -5 -4 -7 -10 -4 -14 9 -12 47 5 69 7 10 18 15 24 11 6 -3
11 -2 11 4 0 5 -6 12 -12 14 -7 3 4 6 25 6 26 1 37 5 37 16 0 18 12 19 28 3
10 -10 17 -10 33 0 11 7 25 10 31 6 5 -4 14 0 19 7 8 11 12 10 24 -5 13 -17
13 -21 -5 -33 -11 -8 -20 -20 -20 -26 0 -7 5 -4 11 6 8 14 14 16 25 6 11 -9
14 -7 14 10 0 19 6 23 26 20 4 0 16 13 27 31 18 28 21 30 37 15 9 -8 22 -15
28 -15 7 0 12 -6 12 -12 0 -7 23 -24 50 -37 28 -13 50 -27 50 -32 0 -5 8 -9
18 -9 14 0 14 2 3 9 -16 11 -7 42 11 39 7 -2 18 -9 24 -17 6 -8 24 -16 40 -18
16 -2 35 -11 41 -20 7 -9 16 -13 20 -10 3 4 3 7 -1 7 -4 0 -2 9 4 21 8 14 17
18 28 14 17 -7 40 -13 55 -14 5 -1 5 -5 2 -11 -3 -6 1 -10 10 -10 12 0 15 -6
10 -20 -4 -13 -2 -20 7 -20 18 -1 60 -38 86 -76 15 -22 33 -34 59 -39 24 -4
32 -9 24 -15 -9 -5 -10 -10 -2 -14 19 -12 12 -28 -9 -21 -25 8 -27 -16 -3 -41
16 -16 16 -16 -6 -9 -22 7 -22 6 -6 -19 14 -20 21 -24 35 -16 26 14 27 14 40
-24 6 -19 18 -40 26 -46 21 -18 17 -28 -10 -25 -23 3 -23 2 -10 -24 8 -14 14
-39 14 -54 0 -18 5 -27 12 -25 15 5 51 -30 43 -42 -4 -6 -1 -10 5 -10 7 0 10
-6 7 -12 -2 -7 4 -29 15 -49 10 -19 20 -53 21 -75 2 -21 7 -46 10 -54 9 -23
36 -147 51 -230 8 -41 19 -95 24 -120 6 -25 14 -62 17 -82 8 -51 22 -49 17 2
-3 23 0 40 6 40 12 0 15 -9 34 -92 7 -32 16 -58 21 -58 5 0 5 15 1 33 -4 17
-6 50 -5 71 0 22 -4 43 -9 46 -6 4 -13 20 -16 36 -2 16 -9 52 -14 79 -13 75
-11 115 6 115 8 0 14 9 14 21 0 15 -5 19 -15 15 -9 -3 -15 0 -15 9 0 8 5 15
11 15 7 0 8 7 4 18 -3 9 -8 51 -11 94 -2 42 -8 89 -14 104 -6 15 -13 59 -16
98 -9 113 -15 156 -25 162 -16 10 -10 54 7 54 14 0 15 7 9 52 -5 29 -11 76
-15 103 -4 30 -8 40 -10 25 -4 -39 -19 93 -24 225 -3 68 -11 137 -20 160 -12
33 -15 35 -15 15 -1 -14 4 -54 10 -89 6 -42 7 -67 0 -74 -7 -7 -11 -2 -15 14
-2 13 -9 49 -15 79 -7 31 -14 92 -17 135 -3 44 -9 94 -14 110 -11 36 -28 225
-29 338 -1 23 -5 36 -11 32 -5 -3 -10 -1 -10 4 0 6 5 11 11 11 7 0 8 7 4 18
-10 24 -42 289 -50 407 -2 44 -25 164 -56 295 -39 167 -48 206 -68 300 -11 52
-25 125 -32 162 -7 37 -15 65 -19 63 -9 -6 -77 216 -89 292 -5 34 -17 75 -25
91 -8 16 -18 49 -22 73 -4 24 -11 51 -16 59 -6 10 -7 4 -3 -17 4 -21 3 -33 -4
-33 -6 0 -11 19 -11 44 0 25 -4 47 -9 50 -7 5 -21 54 -25 88 -1 3 -4 9 -8 13
-3 4 -4 22 -2 41 2 20 1 40 -2 46 -4 6 -8 28 -9 49 -2 21 -15 65 -30 96 -15
32 -29 69 -31 83 -3 13 -10 28 -16 31 -6 4 -9 23 -6 43 2 20 -1 37 -7 39 -5 2
-10 17 -11 34 0 17 -8 46 -17 65 -10 20 -14 49 -12 73 5 44 -17 314 -23 278
-2 -12 -10 -27 -18 -33 -11 -10 -14 -9 -15 6 -1 45 -9 74 -25 98 -14 22 -17
53 -18 174 0 86 5 172 12 207 7 33 13 84 12 114 0 29 5 59 11 67 16 19 29 109
44 313 4 41 13 92 20 115 8 23 15 50 15 61 0 11 9 37 20 58 11 20 20 45 20 56
0 10 16 29 35 42 19 13 45 43 56 67 11 23 25 42 29 42 14 0 80 71 80 86 0 12
48 90 95 153 14 19 23 36 21 38 -7 8 -46 -22 -46 -34 0 -7 -4 -13 -10 -13 -5
0 -10 5 -10 10 0 6 -7 10 -15 10 -9 0 -12 6 -9 15 4 8 1 15 -5 15 -16 0 -51
-32 -51 -47 0 -7 -6 -10 -14 -7 -9 3 -17 -3 -21 -15 -3 -12 -15 -21 -26 -21
-10 0 -19 -7 -19 -15 0 -8 -9 -15 -19 -15 -10 0 -22 -7 -25 -16 -4 -9 -9 -14
-12 -11 -4 3 -21 -5 -39 -18 -17 -14 -37 -25 -44 -25 -7 0 -10 -4 -7 -9 6 -10
-45 -31 -75 -31 -35 0 -18 15 55 48 143 66 351 260 485 454 19 28 40 52 48 55
7 3 13 9 13 14 0 5 16 31 36 59 19 27 33 54 29 60 -3 5 -2 10 3 10 24 0 54 76
56 138 0 34 -2 62 -6 62 -5 0 -8 6 -8 12 0 7 -16 37 -36 66 l-37 52 22 19 c27
23 27 51 1 58 -11 3 -20 12 -20 19 0 19 20 17 36 -3 12 -17 13 -16 14 4 0 12
-6 23 -12 26 -10 3 -10 9 -1 28 17 35 22 57 24 123 2 41 -1 61 -10 64 -9 3
-12 -10 -11 -49 2 -75 2 -75 -19 -76 -28 -2 -34 52 -26 228 4 79 7 160 7 179
0 19 2 26 5 15 3 -11 10 -24 16 -30 7 -5 13 -19 14 -30 2 -35 8 -60 18 -74 5
-10 4 -16 -3 -19 -7 -2 -12 -16 -12 -30 0 -25 1 -26 14 -7 16 23 20 261 5 271
-5 3 -7 9 -4 14 3 5 7 72 9 150 2 77 6 144 10 147 3 3 1 12 -5 20 -7 7 -11 36
-10 65 0 28 -4 57 -9 64 -6 6 -12 45 -13 85 -1 46 -6 78 -14 84 -7 6 -14 31
-15 58 -1 26 -5 47 -8 47 -11 0 -31 127 -23 146 5 13 3 16 -10 11 -14 -5 -17
0 -17 33 0 40 16 62 30 40 5 -8 10 -9 14 -2 4 6 13 9 21 5 17 -6 19 0 6 25
-15 27 -24 56 -22 68 0 6 -6 17 -14 24 -9 7 -13 21 -9 35 4 16 -2 31 -20 50
-25 27 -34 48 -18 43 8 -3 12 5 12 25 0 8 -4 7 -11 -3 -8 -12 -9 -10 -4 8 4
15 1 24 -9 28 -9 3 -16 13 -16 22 0 23 -58 109 -95 140 -17 15 -42 42 -55 60
-13 17 -30 32 -37 32 -7 0 -17 9 -23 20 -6 11 -18 20 -27 20 -9 0 -14 3 -11 6
11 10 -41 56 -57 50 -8 -3 -15 -10 -15 -15 0 -5 -9 -9 -20 -8 -11 1 -18 6 -16
12 2 5 8 9 14 8 5 -1 16 4 22 12 10 12 9 15 -3 15 -20 0 -33 40 -17 50 9 6 9
13 1 28 -6 11 -11 30 -11 41 0 12 -7 21 -15 21 -8 0 -15 4 -15 10 0 5 -12 20
-27 34 -22 21 -27 34 -27 71 1 42 0 44 -16 30 -9 -8 -22 -15 -28 -15 -12 0
-33 33 -31 47 4 25 -4 33 -33 33 -39 1 -78 30 -78 59 0 12 -6 21 -15 21 -8 0
-15 5 -15 10 0 6 -7 10 -16 10 -11 0 -13 6 -9 19 4 13 -1 27 -13 39 -14 14
-17 23 -9 31 16 16 -22 27 -45 12 -25 -16 -51 3 -43 30 9 28 -3 59 -20 53 -8
-3 -14 -9 -13 -12 2 -22 -5 -29 -27 -24 -32 6 -46 50 -21 64 20 11 21 28 1 28
-8 0 -19 9 -25 21 -13 24 -4 41 10 19 7 -11 10 -8 10 13 0 16 4 26 10 22 6 -3
10 -2 10 4 0 5 -4 12 -10 16 -5 3 -7 12 -4 19 3 9 -3 17 -17 21 -12 4 -32 16
-43 26 -11 11 -25 18 -31 15 -5 -2 -22 8 -36 21 -18 16 -41 26 -68 28 -23 1
-45 5 -48 9 -10 10 -43 -25 -43 -46 0 -31 -18 -24 -75 29 -20 18 -30 20 -61
13 -37 -9 -64 -4 -75 13 -4 5 -9 4 -13 -2z m493 -145 c-2 -2 -13 -6 -23 -8
-24 -4 -33 19 -9 24 18 4 41 -7 32 -16z m-1214 -76 c8 13 25 13 25 -1 0 -5 -4
-8 -9 -4 -5 3 -12 1 -16 -4 -3 -6 -12 -8 -21 -4 -8 3 -14 2 -13 -3 3 -18 -1
-25 -11 -19 -7 4 -6 13 1 26 8 16 14 18 24 9 9 -8 15 -8 20 0z m1655 -450 c0
-5 -5 -10 -11 -10 -5 0 -7 5 -4 10 3 6 8 10 11 10 2 0 4 -4 4 -10z m-830 -17
c0 -7 6 -13 13 -13 7 -1 5 -6 -6 -14 -10 -8 -27 -12 -37 -9 -14 4 -20 0 -20
-12 0 -13 -6 -16 -21 -12 -15 4 -19 2 -15 -9 5 -13 -6 -18 -40 -17 -7 0 -31
-17 -55 -39 -30 -26 -50 -37 -63 -34 -11 3 -25 1 -32 -5 -15 -12 -44 -1 -44
17 0 8 9 14 21 14 11 0 18 4 15 9 -4 5 3 7 15 4 16 -5 20 -2 17 13 -2 13 2 18
15 16 9 -2 17 2 17 8 0 5 9 10 20 10 10 0 23 7 28 16 5 8 15 16 24 18 8 1 23
10 34 20 11 12 19 15 22 7 2 -6 8 -9 13 -5 5 3 9 -3 9 -13 1 -17 1 -17 14 0 7
9 19 17 26 17 9 0 10 4 2 13 -8 10 -6 13 9 13 10 0 19 -6 19 -13z m40 7 c0 -5
-7 -7 -15 -4 -8 4 -15 8 -15 10 0 2 7 4 15 4 8 0 15 -4 15 -10z m837 -605 c4
-4 1 -5 -7 -1 -8 4 -6 1 4 -8 20 -17 29 -82 13 -103 -6 -9 -5 -13 4 -13 10 0
10 -3 2 -11 -6 -6 -9 -17 -6 -24 7 -20 -14 -53 -39 -61 -18 -5 -19 -8 -5 -15
17 -10 18 -5 -26 -94 -37 -73 -60 -105 -74 -105 -7 0 -13 -7 -13 -15 0 -8 -4
-15 -10 -15 -5 0 -10 -9 -10 -19 0 -12 -9 -21 -26 -25 -15 -4 -23 -10 -20 -13
8 -8 -54 -73 -70 -73 -7 0 -17 -14 -23 -31 -15 -43 -57 -93 -190 -227 -170
-169 -290 -271 -321 -272 -9 0 -36 -19 -61 -43 -26 -24 -62 -51 -81 -60 -53
-25 -58 -36 -42 -82 16 -48 17 -55 4 -55 -5 0 -7 7 -3 15 3 10 0 15 -8 13 -7
-2 -14 2 -14 7 -7 61 -19 95 -34 95 -9 0 -23 6 -30 13 -11 10 -13 9 -9 -3 19
-55 18 -57 -7 -74 -15 -10 -34 -19 -43 -21 -47 -9 -78 -19 -89 -27 -7 -5 -16
-7 -22 -4 -12 8 -42 -4 -36 -14 5 -7 -36 -23 -42 -16 -6 5 -6 59 0 81 2 11 11
19 20 19 9 -1 13 4 10 12 -3 8 -12 14 -19 14 -11 0 -10 5 5 21 11 12 24 18 30
14 6 -3 11 1 11 10 0 9 -5 13 -10 10 -6 -4 -9 9 -7 34 3 35 1 39 -14 30 -25
-13 -32 -11 -25 7 4 10 2 13 -6 8 -8 -5 -9 -2 -5 10 5 11 3 15 -5 10 -6 -4
-26 -8 -44 -10 -28 -2 -34 1 -34 18 0 14 -5 18 -15 15 -8 -4 -17 -2 -20 3 -4
6 1 10 10 10 9 0 13 5 10 10 -4 6 -14 9 -23 8 -9 -2 -16 2 -15 9 1 6 -5 14
-14 17 -14 6 -14 4 1 -18 20 -32 20 -31 -4 -34 -11 -1 -29 -3 -40 -4 -11 -1
-18 -8 -16 -14 2 -6 -1 -18 -7 -25 -10 -11 -9 -11 5 -1 11 9 18 10 23 3 9 -16
-57 -53 -68 -38 -7 9 -10 9 -14 0 -2 -7 -11 -13 -19 -13 -9 0 -13 4 -9 9 3 6
-11 9 -35 8 -27 -2 -40 2 -40 10 0 11 -20 18 -42 14 -5 0 -8 3 -8 9 0 5 -9 10
-20 10 -11 0 -20 6 -20 14 0 15 -46 40 -95 52 -16 4 -46 17 -65 30 -36 23
-108 47 -147 49 -12 0 -25 4 -29 8 -4 4 -16 7 -28 7 -23 0 -66 37 -66 56 0 8
14 21 31 29 16 9 40 26 51 37 16 16 20 17 15 5 -4 -11 -1 -17 8 -17 8 0 12 6
9 14 -3 8 0 17 6 21 8 5 5 12 -9 22 -20 13 -20 40 -1 28 5 -3 11 -2 14 3 3 5
21 7 40 6 30 -3 36 0 36 16 0 22 15 34 31 24 8 -4 7 -9 -2 -15 -8 -5 -9 -9 -3
-9 5 0 19 7 30 15 19 14 19 14 -1 15 -15 0 -12 4 13 16 31 16 43 34 22 34 -5
0 -10 -4 -10 -10 0 -5 -5 -10 -11 -10 -6 0 -9 7 -5 15 3 9 0 15 -8 15 -8 0
-23 3 -33 6 -13 4 -15 3 -4 -4 9 -7 10 -12 2 -16 -13 -9 -33 2 -26 14 3 4 -2
13 -9 19 -10 8 -16 9 -21 1 -3 -5 -1 -10 4 -10 6 0 11 -4 11 -10 0 -5 -7 -7
-15 -4 -8 4 -15 2 -15 -3 0 -5 -7 -10 -15 -10 -8 0 -15 3 -15 7 0 4 -13 7 -28
6 -24 -1 -28 -5 -24 -21 5 -18 4 -19 -13 -5 -13 10 -16 11 -11 2 5 -8 1 -19
-10 -27 -11 -8 -15 -15 -9 -15 5 0 -1 -7 -14 -16 -18 -13 -25 -14 -34 -4 -9 9
-8 11 5 8 17 -3 27 14 11 19 -15 4 -49 -29 -35 -34 6 -3 12 -9 12 -14 0 -14
-38 -11 -43 4 -3 7 -6 4 -6 -7 -1 -12 -6 -16 -15 -13 -11 4 -13 1 -9 -10 4
-10 2 -14 -4 -10 -6 4 -13 0 -17 -8 -3 -8 -12 -12 -21 -9 -11 4 -15 0 -15 -16
0 -11 -4 -19 -9 -16 -5 3 -12 -1 -15 -10 -3 -8 -2 -12 4 -9 6 3 10 2 10 -3 0
-6 -7 -12 -15 -16 -8 -3 -12 -12 -9 -20 3 -8 1 -16 -3 -19 -5 -3 -8 6 -8 21 1
15 -3 33 -8 40 -6 7 -5 17 2 26 8 10 9 16 1 21 -5 3 -10 -1 -10 -9 0 -9 -7
-16 -15 -16 -8 0 -18 -12 -21 -27 -4 -16 -12 -35 -18 -43 -9 -13 -8 -13 4 -3
13 10 18 8 27 -6 10 -16 9 -18 -8 -14 -11 3 -19 0 -19 -6 0 -7 -5 -9 -11 -5
-7 4 -10 1 -7 -7 3 -8 -4 -22 -16 -32 l-20 -18 21 -5 c19 -5 23 -35 5 -32 -24
3 -23 -4 3 -18 21 -11 31 -12 33 -4 3 7 12 0 22 -15 10 -15 21 -27 26 -26 5 0
8 -7 8 -15 -1 -8 6 -14 15 -14 10 0 24 -11 31 -25 7 -14 17 -25 22 -25 16 0
89 -80 83 -90 -3 -5 -1 -10 5 -10 7 0 9 -7 6 -16 -4 -12 -1 -14 14 -9 14 4 20
2 20 -9 0 -8 9 -17 19 -21 11 -3 22 -13 26 -23 5 -14 7 -14 15 -2 7 12 12 12
28 -3 10 -9 24 -17 30 -17 7 0 12 -6 12 -13 0 -15 41 -37 70 -37 10 0 31 -5
47 -12 15 -6 38 -10 51 -9 12 1 22 -2 22 -7 0 -6 12 -10 28 -10 15 -1 41 -1
57 -2 17 0 36 -4 43 -9 13 -8 62 4 91 23 10 7 12 5 7 -5 -4 -8 -1 -5 8 5 8 10
13 22 11 27 -3 4 -1 10 5 14 5 3 10 2 10 -3 0 -5 27 -15 60 -21 33 -7 60 -16
60 -22 0 -5 5 -9 11 -9 5 0 9 8 7 18 -1 9 1 22 5 29 9 15 47 4 47 -14 0 -8 4
-12 9 -8 5 3 13 0 17 -7 4 -7 4 -10 0 -6 -8 7 -46 -27 -46 -41 0 -5 -4 -11
-10 -13 -5 -1 -6 -8 -2 -15 6 -9 22 -5 62 14 30 14 57 29 60 33 3 4 29 15 58
25 29 9 56 23 59 31 3 8 11 14 19 14 10 0 9 -7 -4 -32 -24 -46 -48 -66 -145
-122 -47 -27 -109 -70 -138 -97 -29 -27 -57 -49 -61 -49 -4 0 -8 -5 -8 -11 0
-13 61 -7 102 9 15 6 41 9 58 7 16 -2 30 0 30 4 0 4 16 8 35 9 41 2 101 27
109 47 2 7 13 11 23 9 11 -3 26 3 37 15 21 23 54 18 35 -5 -6 -8 -17 -14 -23
-14 -13 0 -41 -41 -38 -54 2 -5 -4 -4 -12 4 -16 12 -21 4 -17 -23 1 -4 -13
-16 -30 -26 -19 -12 -26 -20 -17 -23 8 -3 1 -11 -18 -21 -34 -18 -57 -42 -60
-64 -3 -21 24 -28 44 -11 9 9 22 13 29 11 7 -2 18 5 25 16 7 12 18 21 25 21 7
0 13 3 13 8 0 4 38 34 85 67 46 33 84 66 84 74 1 8 8 11 21 8 11 -3 18 -1 14
4 -3 5 4 9 15 9 11 0 26 6 33 13 16 16 100 57 115 57 6 0 14 -13 18 -30 4 -16
11 -32 15 -35 5 -3 -4 -27 -21 -53 -16 -26 -25 -48 -19 -50 5 -2 8 -7 5 -12
-3 -5 -7 -27 -9 -50 -4 -34 0 -43 20 -56 16 -11 22 -23 19 -38 -2 -11 -6 -48
-9 -81 -6 -65 4 -55 24 22 9 36 16 44 43 51 19 5 32 15 32 24 0 9 3 20 7 23 4
4 4 13 1 21 -2 7 2 23 11 36 9 12 16 35 16 49 0 15 5 29 12 31 8 3 9 12 0 36
-9 26 -8 32 4 32 7 0 14 7 14 15 0 8 5 25 11 38 10 23 13 23 137 21 250 -4
294 -9 335 -33 20 -13 37 -24 37 -25 0 -1 -20 2 -44 8 -25 6 -43 13 -40 17 2
4 0 10 -6 14 -5 3 -10 0 -10 -8 0 -12 -16 -13 -82 -10 -46 3 -90 9 -99 14 -9
4 -19 5 -23 2 -4 -4 -19 -9 -34 -11 -14 -2 -32 -8 -39 -14 -7 -5 -16 -7 -21
-4 -6 3 -12 -3 -15 -14 -3 -11 -11 -20 -19 -20 -11 0 -11 2 1 9 9 6 10 11 2
15 -7 5 -17 -6 -26 -27 -8 -20 -18 -37 -22 -39 -11 -4 -59 -105 -75 -155 -7
-24 -16 -43 -20 -43 -4 0 -10 -20 -14 -45 -4 -27 -10 -42 -17 -38 -6 3 -7 1
-3 -6 14 -21 9 -91 -8 -109 -10 -11 -14 -28 -10 -46 2 -15 0 -34 -6 -41 -19
-22 -8 -78 15 -81 11 -2 23 2 27 9 6 9 8 9 8 0 0 -7 7 -13 15 -13 9 0 19 -8
22 -17 4 -9 24 -34 45 -56 21 -22 35 -43 32 -48 -3 -5 2 -6 11 -2 11 4 25 -4
40 -23 13 -16 29 -29 36 -30 8 0 24 -2 36 -2 17 -2 21 -6 16 -19 -6 -16 -5
-16 10 -4 15 12 17 11 17 -3 0 -13 9 -15 49 -12 37 3 53 0 63 -12 11 -13 11
-14 0 -8 -10 6 -13 3 -10 -10 2 -11 12 -19 22 -19 26 0 30 -36 6 -42 -15 -4
-17 -9 -10 -23 14 -26 13 -65 -6 -189 -22 -148 -41 -211 -61 -204 -12 5 -15 2
-10 -11 13 -33 -73 -225 -149 -332 -47 -66 -154 -170 -219 -213 -22 -14 -58
-40 -79 -58 -22 -18 -49 -33 -59 -33 -11 0 -18 -3 -14 -6 6 -7 -28 -48 -36
-42 -3 1 -15 -9 -27 -25 -12 -15 -26 -24 -32 -21 -6 4 -8 3 -5 -3 3 -5 -11
-26 -33 -46 -37 -36 -58 -48 -45 -27 3 6 2 10 -3 10 -5 0 -15 -11 -22 -25 -7
-14 -17 -25 -22 -25 -5 0 -6 6 -2 13 4 7 3 9 -2 4 -5 -5 -9 -14 -9 -20 0 -7
-7 -12 -15 -12 -8 0 -16 -6 -16 -12 -3 -24 -4 -25 -17 -15 -10 8 -20 4 -41
-18 -15 -16 -30 -29 -34 -29 -20 3 -50 -15 -46 -26 4 -9 -1 -12 -14 -8 -13 3
-25 -3 -35 -17 -10 -14 -22 -20 -31 -17 -9 4 -21 -2 -29 -13 -8 -11 -17 -17
-20 -13 -4 3 -7 2 -7 -4 0 -6 -7 -14 -16 -17 -8 -3 -12 -2 -9 4 3 6 2 10 -2
10 -5 0 -14 -9 -21 -20 -7 -11 -21 -20 -32 -20 -14 0 -18 -5 -13 -17 5 -11 3
-14 -6 -8 -18 10 -63 -15 -56 -32 3 -8 0 -11 -6 -7 -15 9 -59 -16 -59 -33 0
-7 -8 -17 -17 -20 -10 -4 -27 -15 -37 -25 -11 -10 -24 -18 -28 -18 -5 0 -7 -4
-4 -9 6 -9 -22 -26 -37 -22 -5 1 -6 -2 -3 -7 2 -4 -9 -18 -25 -31 -16 -13 -26
-27 -23 -32 3 -5 -4 -9 -15 -9 -12 0 -21 -7 -21 -15 0 -8 -5 -15 -11 -15 -5 0
-7 6 -3 13 5 6 -9 -3 -29 -20 -21 -18 -42 -33 -48 -33 -6 0 -7 -6 -3 -12 5 -9
2 -9 -9 1 -14 11 -17 11 -17 0 0 -11 -15 -14 -61 -13 -41 1 -62 -3 -66 -12 -2
-7 -11 -10 -19 -7 -8 3 -14 0 -14 -7 0 -6 -4 -9 -9 -5 -5 3 -12 1 -16 -5 -3
-5 -11 -10 -17 -10 -6 0 -5 7 3 17 13 15 11 16 -16 8 -16 -5 -63 -9 -102 -9
-40 0 -73 -4 -73 -8 0 -6 -37 -3 -72 8 -9 3 -19 0 -23 -6 -4 -7 -18 -4 -41 10
-18 12 -38 19 -44 15 -5 -3 -10 -2 -10 3 0 5 -18 12 -41 15 -22 3 -47 14 -56
24 -8 10 -12 12 -8 6 8 -17 -20 -17 -34 0 -6 8 -8 17 -4 20 3 4 -1 7 -11 7
-10 0 -24 7 -33 15 -8 8 -19 13 -24 10 -5 -4 -9 -2 -9 4 0 5 -24 18 -54 27
-35 11 -56 24 -59 35 -3 11 -17 23 -31 29 -15 5 -30 20 -35 33 -5 12 -21 29
-35 36 -14 8 -26 21 -26 28 0 8 -16 29 -36 47 -21 19 -34 39 -30 45 4 6 1 11
-8 11 -9 0 -16 9 -16 20 0 11 -7 20 -15 20 -8 0 -21 15 -28 33 -8 17 -21 38
-30 46 -10 7 -17 24 -17 36 0 34 -10 56 -23 48 -6 -4 -8 0 -4 10 3 10 2 17 -3
17 -5 0 -12 11 -16 25 -3 14 -9 25 -13 25 -6 0 -31 71 -31 91 0 16 -29 41 -40
34 -14 -9 -13 8 2 23 9 9 9 12 0 12 -7 0 -12 13 -12 30 0 21 -5 30 -16 30 -8
0 -12 5 -9 10 3 6 1 10 -5 10 -7 0 -10 7 -6 15 3 8 0 14 -7 12 -7 -1 -12 10
-12 31 0 17 -3 32 -7 32 -5 0 -8 11 -8 25 0 17 -6 25 -17 25 -9 0 -13 3 -10 7
4 3 -1 12 -11 19 -9 7 -13 16 -9 20 4 5 12 2 17 -6 8 -12 10 -9 10 10 -1 14
-7 34 -15 44 -11 15 -12 23 -3 34 10 11 8 16 -5 23 -9 6 -17 17 -17 25 0 8 -3
13 -7 11 -7 -5 -13 29 -17 100 0 11 -4 19 -7 17 -4 -2 -13 3 -20 12 -10 13
-10 17 2 25 11 7 11 9 0 9 -7 0 -11 6 -8 15 4 8 2 17 -4 21 -7 4 -6 10 1 19 7
9 8 15 1 19 -6 4 -8 20 -4 36 4 23 1 31 -12 36 -17 7 -17 8 1 22 16 13 17 14
2 9 -18 -6 -26 8 -9 15 4 2 11 14 15 28 4 14 4 20 -1 13 -6 -8 -12 0 -19 23
-6 19 -7 34 -2 34 5 0 5 8 -1 18 -6 12 -5 23 4 36 11 14 11 22 2 37 -10 16 -9
21 3 29 17 10 20 39 6 58 -5 7 -5 12 0 12 13 0 11 63 -1 72 -6 5 -5 8 4 8 10
0 12 8 8 30 -4 17 -2 30 3 30 6 0 10 9 10 20 0 11 6 20 13 20 8 0 7 4 -3 10
-8 5 -10 10 -3 10 11 0 23 48 35 153 1 9 5 17 9 17 5 0 18 52 23 95 2 20 37
75 47 75 5 0 9 15 7 34 -1 21 5 40 15 51 10 9 15 20 12 25 -3 5 -1 11 5 15 5
3 7 17 4 31 -4 14 -2 24 5 24 6 0 11 17 11 38 0 20 7 50 15 66 8 15 12 32 9
37 -3 5 2 9 11 9 10 0 15 5 12 14 -3 7 3 20 14 29 11 10 19 30 19 47 0 19 5
30 14 30 7 0 19 20 26 44 7 25 18 47 25 50 7 2 15 19 19 38 5 26 9 30 16 18 6
-10 10 -11 10 -3 0 17 46 71 92 109 7 6 22 23 33 38 32 45 58 67 73 61 7 -2
10 0 7 5 -3 6 -1 10 4 10 6 0 11 7 11 15 0 8 9 20 20 27 11 7 20 18 20 23 0
15 68 87 112 120 21 15 36 30 35 33 -1 4 1 7 4 7 4 0 15 7 25 16 31 25 72 40
80 28 3 -6 15 -9 25 -6 20 5 22 -14 5 -43 -5 -8 -6 -12 -1 -8 4 4 14 3 22 -3
10 -9 13 -8 13 5 0 10 4 15 8 12 4 -2 14 -1 22 4 11 7 11 11 1 24 -11 13 -11
16 1 16 9 0 14 14 16 43 1 23 2 52 3 64 1 13 6 20 14 17 7 -3 15 4 18 15 3 12
1 21 -4 21 -5 0 -2 11 7 25 8 13 13 29 9 36 -4 6 -3 14 2 18 13 8 25 71 13 71
-34 0 -3 112 39 138 12 7 21 19 21 27 0 8 5 15 11 15 5 0 7 5 4 10 -8 13 52
73 65 65 5 -3 10 -1 10 5 0 12 32 10 41 -3 4 -5 -5 -29 -18 -54 -13 -25 -22
-52 -19 -59 3 -8 0 -13 -7 -11 -7 1 -12 -5 -12 -13 0 -8 -7 -20 -15 -27 -8 -7
-11 -13 -6 -13 5 0 3 -7 -4 -15 -10 -13 -9 -15 9 -15 12 0 20 3 18 8 -3 4 14
8 36 8 23 1 78 9 122 18 44 9 88 17 98 17 9 0 17 3 17 7 0 10 42 8 58 -2 7 -4
12 -2 12 4 0 6 5 8 10 5 6 -3 16 -3 22 1 7 5 19 9 28 9 8 1 38 7 65 13 41 10
110 11 110 2 0 -2 20 -5 78 -12 9 -1 17 -6 17 -11 0 -4 14 -13 30 -18 17 -6
30 -15 30 -20 0 -5 6 -9 14 -9 8 0 22 -7 30 -16 9 -8 16 -13 16 -10 0 3 9 -2
19 -11 10 -10 31 -29 46 -43 35 -31 75 -37 70 -10 -3 13 1 17 11 13 8 -3 13
-12 10 -19 -3 -9 1 -14 12 -14 19 -1 52 -23 52 -36 0 -4 -5 -3 -12 4 -7 7 -17
12 -23 12 -5 0 -4 -4 3 -9 7 -4 14 -17 15 -29 0 -11 5 -18 9 -16 4 3 8 -4 8
-14 0 -11 7 -25 15 -32 10 -9 15 -9 15 -1 0 6 -5 11 -12 11 -6 0 -9 3 -5 6 3
3 2 17 -3 30 -9 24 2 34 15 14 4 -6 11 -8 16 -4 5 3 9 2 8 -3 -3 -20 2 -33 14
-33 6 0 21 -13 32 -29 10 -16 23 -27 27 -25 4 3 13 -6 20 -20 6 -14 18 -26 26
-26 8 0 12 -6 9 -14 -4 -10 0 -12 14 -9 12 4 26 -2 35 -13 13 -18 14 -17 8 9
-4 18 -2 27 6 27 8 0 10 8 7 21 -5 20 -5 20 15 2 12 -10 18 -12 14 -5 -4 7 -2
12 6 12 7 0 2 7 -10 16 -22 15 -22 17 -8 39 14 22 14 25 -1 34 -14 7 -15 12
-5 24 7 8 12 19 11 23 -4 24 3 32 23 26 15 -4 19 -2 13 7 -4 7 -16 11 -26 8
-10 -3 -23 1 -30 9 -6 8 -9 14 -6 14 3 0 -5 11 -18 25 -14 13 -25 31 -25 38 0
14 -22 29 -45 31 -5 1 -10 8 -10 16 0 8 -10 16 -22 18 -13 2 -20 8 -17 16 3 8
-1 16 -9 19 -8 3 -22 19 -30 36 -12 24 -12 29 -1 24 8 -3 14 1 14 9 0 13 14
17 67 19 12 1 24 6 26 13 3 6 22 13 43 14 22 2 44 8 49 15 6 7 26 12 45 12 19
0 38 4 43 10 4 6 10 5 17 -5 6 -10 10 -11 10 -3 0 7 8 12 18 11 25 -3 112 23
112 33 0 5 17 9 38 9 21 0 42 4 48 10 5 5 23 11 40 13 16 2 35 7 42 11 7 4 16
4 22 1 5 -3 18 -1 27 4 10 6 14 11 8 12 -5 0 26 12 70 25 104 31 235 76 260
90 11 6 26 9 33 7 7 -3 19 2 25 12 7 9 27 17 44 17 18 1 30 5 27 9 -6 10 48
39 73 39 10 1 29 7 43 15 26 15 64 15 77 0z m-2312 -115 c3 -5 20 -9 38 -8 34
1 107 -21 107 -33 0 -4 13 -10 30 -14 16 -4 32 -11 35 -16 4 -5 13 -9 21 -9
16 0 46 -25 39 -32 -2 -2 -41 -3 -86 -1 -85 3 -149 -15 -149 -43 0 -8 -6 -14
-12 -15 -7 0 -26 -2 -43 -5 -16 -2 -50 -6 -75 -8 -25 -2 -69 -14 -99 -25 -62
-25 -81 -22 -81 14 0 29 10 39 109 115 106 81 151 104 166 80z m2440 -59 c3
-5 1 -12 -5 -16 -5 -3 -10 1 -10 9 0 18 6 21 15 7z m-4 -55 c-7 -8 -11 -19 -8
-23 3 -4 -1 -14 -9 -20 -7 -7 -15 -9 -19 -4 -3 5 -1 12 5 16 5 3 10 15 10 26
0 11 5 17 10 14 6 -3 10 -1 10 6 0 7 3 9 6 6 4 -4 1 -13 -5 -21z m-1161 -62
c0 -17 -22 -14 -28 4 -2 7 3 12 12 12 9 0 16 -7 16 -16z m1103 -31 c-20 -31
-45 -54 -53 -47 -10 11 34 74 52 74 18 0 18 -1 1 -27z m119 -75 c-7 -7 -12 -8
-12 -2 0 14 12 26 19 19 2 -3 -1 -11 -7 -17z m52 -71 c-9 -25 -22 -21 -19 6 3
32 4 32 15 21 6 -6 8 -18 4 -27z m-1748 -122 c1 -10 9 -22 16 -27 10 -8 9 -9
-4 -5 -9 3 -19 1 -22 -6 -4 -7 -5 -3 -2 9 2 12 -1 29 -6 39 -8 13 -7 16 2 13
7 -2 14 -12 16 -23z m-501 -85 c3 -5 1 -10 -4 -10 -6 0 -11 5 -11 10 0 6 2 10
4 10 3 0 8 -4 11 -10z m2036 -19 c-10 -6 -10 -10 -1 -16 8 -5 4 -15 -13 -34
-14 -14 -27 -35 -29 -46 -3 -22 -21 -45 -35 -45 -4 0 -18 -16 -31 -35 -12 -19
-29 -35 -37 -35 -8 0 -19 -9 -25 -20 -6 -11 -17 -20 -25 -20 -8 0 -15 -4 -15
-9 0 -9 -54 -34 -77 -35 -6 -1 -15 -5 -19 -9 -12 -12 -24 -8 -24 7 0 8 11 23
25 34 14 11 28 28 32 39 5 11 48 55 98 99 49 43 101 91 115 106 14 16 36 28
50 28 18 0 21 -3 11 -9z m236 2 c-4 -3 -2 -12 4 -20 6 -7 8 -13 5 -13 -4 0 0
-10 8 -22 16 -23 6 -48 -19 -48 -7 0 -12 -14 -12 -35 0 -21 4 -31 8 -23 4 6 5
16 3 20 -3 4 1 8 10 8 25 0 32 -46 23 -153 -4 -56 -8 -111 -8 -122 0 -10 -4
-24 -9 -30 -5 -6 -8 -22 -5 -34 2 -13 -2 -46 -10 -74 -8 -29 -17 -63 -20 -77
-4 -14 -9 -32 -12 -40 -3 -8 -7 -25 -9 -38 -1 -12 -10 -29 -18 -38 -9 -9 -14
-19 -11 -24 3 -5 1 -11 -4 -15 -6 -3 -8 -12 -5 -19 3 -8 1 -17 -5 -21 -6 -3
-11 -15 -11 -26 0 -11 -7 -19 -16 -19 -8 0 -13 -4 -10 -8 2 -4 -3 -25 -12 -46
l-17 -39 -48 46 c-26 25 -56 64 -68 86 -11 22 -31 47 -45 55 -13 9 -24 23 -24
31 0 8 -10 23 -22 35 -12 11 -18 20 -12 20 5 0 4 4 -1 8 -6 4 -18 19 -28 34
-9 15 -28 30 -40 33 -13 4 -29 16 -36 27 -12 19 -11 24 14 42 29 22 68 47 124
81 18 11 49 32 68 47 19 15 43 30 54 33 21 7 25 31 7 39 -7 3 -1 3 15 0 21 -5
27 -2 27 11 0 9 4 14 9 11 4 -3 19 6 31 19 13 14 18 25 12 25 -6 0 -17 -8 -24
-17 -7 -10 -23 -18 -35 -19 -18 0 -20 2 -12 13 6 7 15 10 20 7 5 -3 9 0 9 7 0
15 76 89 84 82 3 -3 -1 -12 -9 -20 -8 -8 -15 -20 -15 -26 0 -6 7 -1 16 11 8
12 20 20 25 16 6 -3 5 4 -3 15 -11 18 -11 23 1 30 8 5 11 16 8 24 -3 9 1 21 9
27 8 7 14 19 14 26 0 8 4 14 8 14 5 0 9 7 9 15 0 11 -11 5 -35 -17 l-35 -33
22 33 c13 19 21 41 18 53 -3 11 1 23 11 29 19 11 39 13 29 3z m-87 -73 c0 -5
-5 -10 -12 -10 -6 0 -8 -3 -5 -7 7 -7 -34 -68 -62 -92 -13 -10 -13 -14 -3 -18
17 -7 -32 -33 -61 -33 -20 0 -20 0 -1 19 10 10 26 16 34 13 13 -5 13 -3 2 10
-11 14 -10 17 7 23 12 3 21 15 21 25 0 13 5 18 15 13 9 -3 15 -2 13 3 -3 11
34 63 45 64 4 0 7 -4 7 -10z m-2416 -46 c3 -8 2 -12 -4 -9 -6 3 -10 10 -10 16
0 14 7 11 14 -7z m-2014 -100 c-18 -21 -24 -10 -8 15 7 12 14 17 16 11 2 -6
-2 -17 -8 -26z m4275 -44 c3 -5 1 -10 -4 -10 -6 0 -11 5 -11 10 0 6 2 10 4 10
3 0 8 -4 11 -10z m-297 -110 c-12 -19 -38 -35 -38 -23 0 9 33 42 43 42 4 1 2
-8 -5 -19z m-1678 -62 c0 -16 -3 -19 -11 -11 -6 6 -8 16 -5 22 11 17 16 13 16
-11z m175 -98 c17 0 26 -37 11 -48 -19 -14 -73 -13 -79 2 -8 20 22 59 40 52 8
-3 20 -6 28 -6z m-2745 -89 c0 -6 -4 -13 -10 -16 -5 -3 -10 1 -10 9 0 9 5 16
10 16 6 0 10 -4 10 -9z m3622 -94 c31 -29 46 -51 45 -65 -2 -27 1 -27 -51 2
-27 15 -48 21 -57 16 -8 -5 -19 -4 -26 1 -7 6 -17 8 -22 5 -5 -4 -13 -1 -17 5
-4 7 -3 9 4 5 6 -3 17 0 25 8 8 8 17 12 21 9 3 -4 6 -1 6 5 0 7 -7 12 -17 12
-14 0 -14 2 2 20 25 28 33 26 87 -23z m-172 -77 c0 -11 -3 -19 -7 -18 -5 1
-19 -4 -32 -11 -19 -11 -22 -11 -18 1 2 7 10 12 17 10 7 -2 10 3 7 12 -4 10
-1 13 9 9 7 -3 14 0 14 6 0 6 2 11 5 11 3 0 5 -9 5 -20z m270 -6 c0 -2 -7 -4
-15 -4 -8 0 -15 4 -15 10 0 5 7 7 15 4 8 -4 15 -8 15 -10z m-320 -64 c-14 -11
-34 -20 -44 -20 -20 0 -20 0 -1 14 11 8 23 12 26 10 4 -2 12 3 19 11 7 9 16
13 19 10 3 -4 -5 -15 -19 -25z m720 -126 c0 5 7 3 15 -4 8 -7 25 -10 40 -6 20
5 23 3 18 -11 -4 -11 -3 -14 5 -9 7 4 12 3 12 -2 0 -6 8 -8 18 -6 9 3 27 -4
39 -15 32 -30 40 -26 48 19 6 37 15 46 40 40 6 -1 17 -3 27 -5 29 -6 124 -56
154 -81 25 -23 27 -28 17 -54 -6 -17 -7 -28 -2 -24 6 3 7 -4 4 -18 -4 -13 -7
-31 -8 -39 -2 -8 -6 -20 -11 -28 -5 -7 -10 -21 -11 -30 -3 -28 -24 -71 -35
-71 -5 0 -9 -3 -8 -7 3 -16 -15 -44 -34 -54 -19 -10 -19 -10 -2 16 17 25 17
27 -1 23 -10 -2 -19 3 -21 10 -1 7 0 8 3 2 5 -12 23 -4 23 11 0 5 -7 9 -16 9
-14 0 -14 1 0 16 9 8 16 21 16 27 0 7 -7 3 -15 -7 -8 -11 -18 -17 -22 -13 -3
4 2 17 13 29 19 22 19 23 -1 8 -25 -19 -35 -32 -29 -41 2 -4 -5 -5 -16 -2 -18
5 -25 -5 -21 -29 2 -12 -13 -9 -29 5 -8 7 -7 1 3 -16 12 -19 14 -26 5 -25 -7
2 -13 -4 -13 -13 0 -8 -8 -27 -18 -42 -9 -14 -14 -33 -11 -41 4 -11 0 -16 -10
-16 -9 0 -16 5 -16 11 0 6 -9 9 -19 6 -13 -3 -18 0 -15 8 3 7 -8 28 -24 46
-15 19 -36 45 -45 58 -20 30 -157 132 -167 126 -5 -3 -18 11 -30 30 -12 19
-28 35 -36 35 -22 0 -16 38 9 51 12 7 24 15 27 18 3 4 17 12 33 19 15 6 32 23
39 37 6 14 18 25 26 25 12 0 12 2 1 17 -12 15 -12 16 3 10 10 -3 20 -1 24 5 4
7 9 6 15 -3 5 -8 9 -10 9 -5z m487 -27 c-2 -6 -9 -12 -15 -13 -7 -1 -8 0 -2 3
8 3 7 9 -1 19 -10 12 -9 13 5 8 9 -4 15 -11 13 -17z m-1407 -83 c0 -8 -19 -13
-24 -6 -3 5 1 9 9 9 8 0 15 -2 15 -3z m1770 -33 c0 -10 8 -22 17 -25 10 -4 13
-10 8 -14 -14 -10 -14 -105 -1 -114 7 -5 6 -8 -3 -8 -8 0 -33 19 -55 42 -24
25 -33 39 -22 35 25 -10 36 7 36 61 0 23 5 42 10 42 6 0 10 -9 10 -19z m-5380
-150 c0 -5 -7 -14 -15 -21 -12 -10 -15 -10 -15 2 0 8 3 18 7 21 9 10 23 9 23
-2z m4335 -11 c8 -13 -4 -50 -16 -50 -13 0 -22 27 -15 45 6 17 22 20 31 5z
m1105 -240 c-11 -7 -11 -14 0 -40 12 -28 11 -33 -3 -42 -9 -5 -17 -15 -17 -22
0 -23 -26 -37 -54 -30 -41 10 -30 45 36 116 15 16 28 38 28 47 1 14 2 13 11
-3 9 -14 8 -20 -1 -26z m-5710 -60 c0 -5 -5 -10 -11 -10 -5 0 -7 5 -4 10 3 6
8 10 11 10 2 0 4 -4 4 -10z m-267 -384 c-16 -28 -85 -98 -90 -92 -6 6 6 23 56
79 26 28 48 37 34 13z m-159 -115 c3 -5 -1 -14 -8 -20 -12 -10 -13 -8 -9 8 6
23 9 25 17 12z m46 -6 c-7 -8 -18 -15 -24 -15 -6 0 -2 7 8 15 25 19 32 19 16
0z m5393 -242 c-7 -2 -19 -2 -25 0 -7 3 -2 5 12 5 14 0 19 -2 13 -5z m-6023
-618 c0 -8 -7 -15 -15 -15 -16 0 -20 12 -8 23 11 12 23 8 23 -8z m-40 -20 c0
-8 -4 -15 -10 -15 -5 0 -7 7 -4 15 4 8 8 15 10 15 2 0 4 -7 4 -15z m-230 -175
c0 -5 -5 -10 -11 -10 -5 0 -7 5 -4 10 3 6 8 10 11 10 2 0 4 -4 4 -10z m105
-19 c-3 -6 -11 -11 -17 -11 -6 0 -6 6 2 15 14 17 26 13 15 -4z m6202 -78 c-3
-10 -5 -4 -5 12 0 17 2 24 5 18 2 -7 2 -21 0 -30z m-3332 -123 c3 -5 2 -10 -4
-10 -5 0 -13 5 -16 10 -3 6 -2 10 4 10 5 0 13 -4 16 -10z m13 -85 c-3 -3 -9 2
-12 12 -6 14 -5 15 5 6 7 -7 10 -15 7 -18z m82 -20 c0 -8 7 -15 16 -15 14 0
14 -3 4 -15 -10 -12 -10 -15 0 -15 9 0 11 -9 7 -30 -4 -16 -2 -32 4 -35 5 -4
9 -3 8 2 -7 38 18 44 47 11 10 -12 13 -18 7 -14 -15 8 -17 -3 -4 -23 5 -7 14
-10 20 -7 7 5 11 -1 11 -13 0 -12 -7 -21 -15 -21 -8 0 -15 5 -15 10 0 14 -27
12 -33 -2 -4 -10 -7 -10 -18 0 -12 11 -12 14 1 22 12 8 11 11 -7 16 -13 4 -20
10 -17 15 3 5 0 9 -6 9 -6 0 -8 5 -5 10 3 6 -3 10 -13 10 -11 0 -26 8 -33 17
-8 9 -9 14 -4 11 6 -4 17 -3 25 3 13 7 12 9 -2 9 -22 0 -24 28 -3 36 8 4 12
10 9 15 -3 5 0 9 5 9 6 0 11 -7 11 -15z m-135 -25 c-5 -16 -2 -20 15 -20 14 0
19 -4 14 -12 -6 -9 -3 -9 9 0 16 14 42 8 32 -7 -2 -5 4 -16 14 -26 19 -16 22
-49 7 -73 -9 -15 6 -16 21 -1 15 15 56 1 49 -17 -3 -9 -1 -12 4 -9 6 3 10 1
10 -4 0 -6 5 -11 11 -11 5 0 7 5 4 10 -8 12 5 13 24 1 13 -9 6 -35 -7 -27 -4
2 -16 0 -27 -5 -13 -5 -2 -7 30 -4 60 3 72 -2 48 -22 -17 -14 -17 -14 5 -10
12 3 22 1 22 -5 0 -6 11 -8 25 -6 14 3 25 1 25 -4 0 -6 7 -7 16 -4 13 5 14 4
6 -7 -7 -8 -8 -18 -4 -22 4 -5 2 -5 -4 -2 -7 4 -14 0 -18 -8 -3 -8 -1 -15 4
-15 5 0 7 -8 3 -17 -5 -15 -3 -14 11 2 11 14 15 15 14 5 -2 -9 3 -14 12 -12 8
2 12 0 7 -4 -4 -4 1 -16 10 -26 14 -15 15 -23 6 -37 -9 -15 -9 -23 3 -37 12
-17 13 -17 8 -1 -5 13 -2 16 10 11 12 -5 13 -10 6 -25 -8 -15 -7 -17 5 -13 8
4 15 12 15 20 0 8 4 14 9 14 5 0 7 -8 4 -18 -5 -22 15 -41 48 -44 13 -2 29
-12 36 -23 7 -11 12 -15 13 -9 0 14 57 13 57 -1 0 -7 -8 -10 -18 -8 -9 3 -20
0 -23 -5 -7 -11 -46 -4 -46 9 0 4 -9 7 -19 6 -27 -2 -17 -14 19 -22 17 -4 30
-12 30 -18 0 -7 7 -4 14 6 18 23 25 22 19 -3 -4 -15 -2 -19 10 -15 8 4 17 -1
21 -11 4 -12 2 -15 -9 -10 -19 7 -38 -27 -24 -41 8 -8 7 -13 -1 -18 -7 -4 -14
1 -17 14 -8 30 -28 26 -30 -6 0 -14 2 -21 6 -15 4 7 11 5 19 -8 12 -20 1 -36
-18 -25 -6 4 -10 -5 -10 -20 0 -15 -4 -24 -10 -20 -5 3 -10 -1 -10 -9 0 -21
-17 -20 -28 0 -8 15 -10 15 -15 0 -4 -9 1 -19 10 -24 8 -5 14 -15 12 -21 -3
-8 -12 -5 -27 9 -17 16 -22 17 -22 6 0 -8 7 -21 15 -30 9 -9 11 -17 5 -21 -5
-3 -10 -12 -10 -18 0 -7 4 -6 10 3 6 9 10 11 10 3 0 -7 7 -10 15 -7 11 5 13 2
9 -10 -5 -12 -2 -15 11 -10 15 6 15 4 4 -14 -7 -11 -17 -18 -21 -16 -4 3 -8 0
-8 -6 0 -6 -7 -18 -15 -26 -14 -14 -19 -11 -16 9 2 13 -17 8 -34 -9 -15 -15
-18 -15 -37 5 -11 12 -26 20 -34 17 -8 -3 -14 -2 -14 2 0 4 -8 8 -18 8 -18 0
-22 -9 -23 -48 0 -10 -7 -18 -15 -18 -8 0 -14 -7 -14 -15 0 -8 -6 -15 -12 -15
-10 0 -9 -3 1 -9 8 -5 9 -11 3 -15 -6 -4 -16 2 -22 11 -10 16 -11 16 -5 -2 12
-36 10 -40 -13 -39 -21 1 -21 0 -5 -19 14 -15 14 -19 3 -15 -8 2 -22 -2 -31
-10 -16 -14 -16 -17 9 -36 15 -11 31 -26 35 -33 5 -8 14 -10 20 -6 9 5 9 3 1
-8 -6 -8 -14 -21 -17 -29 -4 -8 -5 -4 -4 10 1 19 -3 26 -21 28 -12 2 -20 8
-17 13 4 5 -1 9 -9 9 -10 0 -13 -6 -10 -15 4 -8 10 -15 16 -15 5 0 6 -5 3 -10
-4 -6 -3 -10 2 -9 22 4 23 -3 5 -28 -17 -24 -18 -30 -5 -41 10 -10 11 -17 3
-27 -9 -11 -7 -12 10 -8 18 5 19 3 11 -19 -6 -17 -5 -29 5 -43 8 -10 14 -15
14 -10 0 5 5 4 12 -3 7 -7 17 -12 22 -12 6 0 3 5 -7 11 -9 6 -15 14 -12 19 3
4 -2 10 -10 14 -8 3 -15 9 -15 15 0 13 38 20 44 7 2 -6 5 0 7 14 1 14 3 30 3
36 1 6 6 18 12 25 14 19 11 45 -6 41 -7 -2 2 11 20 28 18 17 36 28 39 24 3 -4
0 -9 -6 -11 -7 -3 -13 -9 -13 -15 0 -6 6 -6 15 2 8 7 15 23 15 36 0 13 5 24
10 24 6 0 10 6 10 14 0 7 10 25 21 40 12 15 19 30 16 33 -9 8 -27 -7 -27 -23
0 -8 -4 -14 -9 -14 -4 0 -8 13 -7 29 1 18 5 26 10 21 14 -14 36 8 30 28 -5 15
-4 15 6 -1 6 -9 9 -21 6 -26 -4 -5 2 -7 12 -4 16 4 19 -2 18 -37 0 -29 -4 -39
-13 -36 -7 3 -13 1 -13 -4 0 -16 28 -11 42 8 7 9 27 18 43 19 26 3 27 2 9 -6
-35 -15 -38 -30 -5 -28 16 1 27 5 25 9 -5 8 10 18 36 23 11 2 20 0 20 -6 0 -5
-6 -9 -14 -9 -22 0 -25 -34 -5 -58 19 -24 39 -28 56 -11 9 9 10 7 6 -10 -3
-11 -1 -21 4 -21 5 0 10 -7 10 -15 0 -11 -4 -12 -13 -4 -8 7 -14 7 -19 -1 -11
-18 3 -43 21 -36 8 3 12 2 9 -4 -7 -11 53 -70 71 -70 7 0 15 6 17 13 3 6 6 2
6 -9 1 -12 7 -24 15 -27 18 -7 17 -47 -1 -47 -11 0 -11 -4 -1 -20 13 -20 13
-20 29 1 l16 22 6 -24 c4 -13 2 -25 -3 -27 -6 -2 -10 -8 -10 -13 0 -6 6 -7 13
-3 8 5 8 2 -2 -9 -7 -9 -10 -17 -5 -17 5 0 10 -12 11 -27 0 -15 6 -29 12 -31
12 -4 15 -32 4 -32 -5 0 -9 -21 -10 -47 -1 -26 -7 -49 -13 -51 -5 -2 -8 -8 -5
-13 10 -16 -26 -79 -45 -79 -10 0 -21 -8 -25 -17 -6 -21 -71 -53 -106 -53 -22
-1 -22 -2 -6 -11 15 -9 18 -18 12 -46 -5 -29 -2 -39 19 -60 24 -24 26 -24 26
-6 0 11 7 26 15 33 8 7 15 21 15 31 0 23 29 40 50 29 17 -9 18 -61 2 -128 -6
-24 -6 -44 -1 -48 5 -3 5 -12 0 -22 -5 -9 -12 -42 -15 -73 -6 -47 -11 -58 -32
-68 -53 -24 -94 -8 -94 36 0 20 -4 22 -29 17 -23 -5 -32 -2 -41 16 -7 12 -10
33 -7 46 2 13 0 21 -4 18 -15 -9 -10 -62 7 -78 8 -9 24 -16 34 -16 11 0 26
-12 34 -29 16 -31 34 -41 72 -41 24 0 26 -11 11 -50 -22 -55 -36 -113 -31
-122 4 -7 2 -8 -4 -4 -15 9 -15 1 -1 -26 9 -17 8 -23 -5 -30 -9 -5 -16 -18
-16 -28 0 -11 -5 -20 -11 -20 -5 0 -7 -5 -4 -11 4 -6 -2 -19 -14 -30 -12 -11
-21 -26 -21 -33 0 -8 -7 -16 -15 -20 -19 -7 -19 5 0 30 8 10 15 29 15 42 0 12
5 22 10 22 6 0 10 7 10 15 0 8 -9 15 -20 15 -11 0 -20 -7 -20 -15 0 -8 -4 -15
-8 -15 -4 0 -9 -12 -10 -26 -1 -15 -12 -42 -23 -61 -12 -19 -19 -37 -15 -40 3
-4 6 0 6 7 0 7 3 10 6 7 11 -10 -16 -36 -31 -31 -11 5 -13 -5 -10 -45 3 -44 1
-51 -14 -51 -12 0 -20 -9 -23 -25 -3 -13 -1 -22 3 -19 5 3 9 0 9 -5 0 -6 -9
-11 -21 -11 -11 0 -18 -4 -14 -10 3 -5 0 -18 -7 -30 -10 -16 -10 -24 0 -41 7
-12 11 -24 8 -27 -3 -3 -6 -1 -6 5 0 6 -7 14 -16 17 -13 5 -15 1 -10 -19 5
-18 2 -27 -9 -31 -8 -4 -15 -15 -15 -25 0 -10 -4 -19 -10 -19 -12 0 -41 -55
-33 -63 10 -10 -18 -37 -31 -30 -6 3 -6 0 2 -8 15 -16 16 -29 1 -29 -5 0 -7 5
-3 11 4 7 1 10 -7 7 -7 -2 -21 5 -31 16 -16 19 -17 19 -18 3 0 -10 5 -15 10
-12 6 3 10 -1 10 -9 0 -8 -4 -17 -10 -21 -5 -3 -6 -15 -1 -28 11 -29 6 -94 -9
-112 -6 -8 -9 -19 -6 -24 4 -5 2 -12 -4 -16 -19 -12 -10 -26 12 -19 20 6 21 5
9 -9 -7 -9 -18 -14 -23 -11 -6 4 -5 -2 1 -14 8 -15 8 -21 -1 -24 -16 -6 -22
-86 -7 -104 9 -11 8 -14 -3 -14 -9 0 -14 -8 -12 -22 1 -13 3 -23 4 -23 9 0 3
-45 -6 -49 -10 -4 -10 -14 -2 -43 13 -48 15 -61 23 -208 9 -143 8 -136 19
-154 6 -10 5 -12 -2 -7 -7 4 -12 3 -12 -3 0 -5 5 -13 11 -17 7 -4 9 -24 6 -50
-2 -24 0 -45 5 -46 5 -2 5 -15 -2 -33 -8 -21 -13 -26 -19 -16 -5 8 -11 9 -15
3 -7 -12 19 -23 39 -16 8 4 15 2 16 -2 0 -5 2 -20 4 -34 2 -14 5 -52 6 -85 2
-33 8 -63 13 -67 8 -6 7 -11 -3 -17 -10 -6 -10 -10 -2 -16 9 -5 8 -14 -4 -32
-10 -15 -12 -22 -4 -18 9 6 11 4 6 -8 -3 -9 -1 -17 6 -20 7 -2 2 -16 -13 -37
-13 -18 -18 -30 -10 -25 9 5 11 4 6 -3 -4 -7 -14 -12 -22 -12 -8 0 -13 -4 -10
-8 9 -15 -22 -87 -39 -90 -10 -2 -38 -1 -62 3 -32 5 -47 12 -50 25 -4 16 -9
17 -29 8 -32 -15 -39 -5 -20 25 15 22 13 57 -3 57 -3 0 -16 -16 -29 -36 -28
-42 -40 -39 -18 5 9 16 16 35 16 41 0 20 -15 9 -31 -23 -9 -17 -23 -33 -31
-35 -12 -2 -14 7 -10 53 3 37 1 55 -7 55 -6 0 -11 -17 -11 -39 0 -44 -10 -55
-40 -46 -25 8 -26 31 -2 44 14 8 15 12 4 22 -10 11 -18 10 -44 -5 -34 -21 -33
-24 -11 32 3 6 0 12 -5 12 -6 0 -14 -9 -17 -20 -10 -30 -35 -25 -35 8 0 21 -2
24 -10 12 -9 -13 -12 -13 -21 3 -5 9 -16 17 -24 17 -19 0 -100 92 -153 175
-193 297 -232 518 -232 1327 0 366 -4 502 -20 690 -29 349 -49 677 -51 823 -2
162 -2 165 18 187 10 11 12 18 5 18 -7 0 -12 7 -12 15 0 8 7 15 15 15 19 0 19
9 -1 31 -14 15 -15 26 -6 59 8 32 7 40 -4 40 -9 0 -14 11 -14 31 0 19 4 28 11
23 6 -3 4 7 -4 22 -10 19 -12 37 -6 52 5 13 5 22 -1 22 -18 0 -11 39 11 61 16
16 18 23 9 34 -10 12 -7 12 14 2 14 -7 27 -20 30 -31 3 -11 9 -15 16 -11 9 6
10 -3 5 -35 -7 -40 -6 -42 14 -35 22 7 30 -10 9 -18 -10 -3 -10 -8 0 -23 7
-11 15 -27 19 -37 3 -10 11 -16 17 -14 6 2 19 0 30 -5 13 -7 16 -7 12 1 -4 6
-4 17 1 24 17 28 13 47 -10 44 -23 -2 -24 2 -13 58 3 17 1 37 -4 45 -7 11 -10
7 -10 -17 0 -38 -3 -39 -30 -16 -26 22 -25 37 2 55 16 11 19 19 13 34 -7 18
-8 17 -14 -5 -8 -31 -24 -36 -45 -16 -23 24 -20 35 13 46 27 9 29 13 20 36
-11 30 -3 49 16 33 9 -7 16 -6 25 5 11 13 10 14 -4 9 -11 -4 -16 -1 -16 12 0
9 3 15 6 11 3 -3 17 -2 31 4 13 5 22 5 19 0 -3 -5 1 -12 10 -15 11 -4 18 1 21
15 4 13 11 18 20 14 11 -4 13 -1 9 11 -5 13 -2 15 14 11 18 -4 19 -3 9 9 -9
11 -15 12 -26 3 -7 -7 -17 -9 -21 -5 -7 7 19 31 42 39 7 3 3 13 -9 27 l-20 22
24 -3 c20 -3 25 1 28 24 2 15 0 26 -4 25 -4 -2 -9 2 -10 7 -1 6 5 9 14 7 8 -2
12 1 8 7 -3 6 1 11 9 11 8 0 18 -4 21 -10 3 -5 -1 -10 -9 -10 -9 0 -14 -8 -13
-21 1 -18 3 -18 13 -5 6 9 16 16 21 16 6 0 9 12 7 28 -2 15 -1 20 2 12 3 -8
10 -25 16 -37 9 -19 7 -26 -13 -43 -14 -11 -17 -18 -8 -14 11 3 24 -5 38 -22
11 -15 21 -22 21 -17 0 5 -5 14 -11 20 -8 8 -8 17 1 32 6 12 8 26 5 31 -3 5
-1 11 5 15 5 3 10 1 10 -4 0 -6 9 -11 20 -11 11 0 20 -5 20 -11 0 -6 7 -8 16
-5 8 3 13 2 10 -2 -8 -13 9 -32 33 -37 12 -2 19 0 16 6 -4 5 -11 7 -16 4 -5
-4 -9 4 -9 16 0 16 3 19 13 11 8 -7 18 -7 27 -2 14 9 12 11 -20 14 -8 0 -14 9
-12 19 2 10 -3 17 -13 17 -8 0 -15 5 -15 10 0 6 4 10 9 10 17 0 20 28 5 47
-14 17 -14 17 -5 -4 18 -37 -6 -37 -44 0 -19 19 -35 37 -35 41 0 4 22 4 49 0
28 -4 51 -2 54 4 4 5 -6 8 -23 6 -27 -3 -29 -2 -19 20 8 17 17 22 35 18 13 -2
24 -11 24 -18 0 -8 7 -14 15 -14 8 0 15 5 15 10 0 6 -4 10 -10 10 -5 0 -10 9
-10 21 0 16 4 19 20 14 14 -4 20 -2 20 9 0 8 -4 18 -10 21 -15 10 -12 28 4 22
8 -3 17 1 20 9 3 8 2 13 -3 10 -5 -3 -12 5 -15 19 -4 14 -11 25 -16 25 -6 0
-10 5 -10 10 0 6 11 3 25 -6 30 -20 34 -3 5 24 -20 19 -20 19 28 14 27 -2 52
0 55 5 3 5 -6 9 -21 8 -15 -2 -20 0 -11 2 10 2 15 11 12 21 -3 13 6 23 30 34
20 9 43 28 54 42 22 31 26 32 18 6z m295 -104 c0 -3 -4 -8 -10 -11 -5 -3 -10
-1 -10 4 0 6 5 11 10 11 6 0 10 -2 10 -4z m-9 -40 c-9 -10 -8 -15 4 -20 8 -3
15 -10 15 -16 0 -5 -9 -2 -20 7 -14 13 -17 20 -8 30 6 7 13 13 15 13 3 0 0 -6
-6 -14z m160 -37 c23 -23 21 -33 -5 -23 -9 3 -13 10 -10 15 3 5 0 9 -5 9 -6 0
-11 5 -11 10 0 15 8 12 31 -11z m46 -30 c2 -11 -1 -18 -6 -14 -6 3 -9 14 -8
25 2 23 10 17 14 -11z m-67 -23 c0 -3 -4 -8 -10 -11 -5 -3 -10 -1 -10 4 0 6 5
11 10 11 6 0 10 -2 10 -4z m2944 -27 c-3 -5 -10 -7 -15 -3 -5 3 -7 10 -3 15 3
5 10 7 15 3 5 -3 7 -10 3 -15z m-2937 -5 c-3 -3 -12 -4 -19 -1 -8 3 -5 6 6 6
11 1 17 -2 13 -5z m-37 -19 c0 -8 -8 -15 -17 -14 -11 0 -13 3 -5 6 6 2 10 9 6
14 -3 5 0 9 5 9 6 0 11 -7 11 -15z m-690 -5 c0 -5 -5 -10 -11 -10 -5 0 -7 5
-4 10 3 6 8 10 11 10 2 0 4 -4 4 -10z m3705 -140 c3 -5 1 -10 -4 -10 -6 0 -11
5 -11 10 0 6 2 10 4 10 3 0 8 -4 11 -10z m-4955 -50 c0 -5 -7 -10 -15 -10 -8
0 -15 5 -15 10 0 6 7 10 15 10 8 0 15 -4 15 -10z m-33 -47 c14 -17 14 -17 9 0
-4 11 -2 17 5 15 6 -2 10 -7 9 -12 -1 -5 3 -12 9 -16 13 -7 4 -40 -10 -40 -5
0 -9 7 -9 15 0 8 -9 20 -20 27 -11 7 -20 16 -20 20 0 13 12 9 27 -9z m-87 -35
c0 -5 -7 -8 -16 -8 -14 0 -15 -2 -3 -17 13 -17 13 -17 -6 -3 -34 26 -44 37
-38 44 3 3 12 -2 18 -11 11 -15 13 -15 20 6 6 18 9 21 16 10 5 -8 9 -17 9 -21z
m-1485 13 c3 -5 1 -12 -5 -16 -5 -3 -10 -2 -10 4 0 5 -8 12 -17 14 -14 4 -13
5 4 6 12 0 24 -3 28 -8z m1535 -11 c9 -16 8 -18 -5 -14 -8 4 -15 12 -15 20 0
20 7 17 20 -6z m1120 -4 c0 -2 -7 -6 -15 -10 -8 -3 -15 -1 -15 4 0 6 7 10 15
10 8 0 15 -2 15 -4z m-1020 -20 c0 -3 -4 -8 -10 -11 -5 -3 -10 -1 -10 4 0 6 5
11 10 11 6 0 10 -2 10 -4z m2135 -46 c3 -6 -1 -7 -9 -4 -18 7 -21 14 -7 14 6
0 13 -4 16 -10z m-1296 -24 c9 -11 6 -15 -15 -20 -31 -8 -39 -3 -31 19 8 19
31 20 46 1z m19 -63 c2 -12 -4 -23 -13 -27 -32 -12 -48 17 -23 42 17 17 32 10
36 -15z m1268 5 c4 -7 4 -10 -1 -6 -4 4 -17 1 -29 -7 -30 -21 -42 -18 -21 5
21 23 41 26 51 8z m-2036 -8 c0 -5 -4 -10 -10 -10 -5 0 -10 5 -10 10 0 6 5 10
10 10 6 0 10 -4 10 -10z m2040 -18 c0 -5 -7 -9 -15 -9 -8 0 -12 4 -9 9 3 4 9
8 15 8 5 0 9 -4 9 -8z m-20 -46 c0 -9 -30 -14 -35 -6 -4 6 3 10 14 10 12 0 21
-2 21 -4z m-66 -18 c-3 -4 -9 -8 -15 -8 -5 0 -9 4 -9 8 0 5 7 9 15 9 8 0 12
-4 9 -9z m41 -38 c3 -5 -1 -10 -10 -10 -9 0 -13 5 -10 10 3 6 8 10 10 10 2 0
7 -4 10 -10z m2965 -60 c0 -5 -4 -10 -10 -10 -5 0 -10 5 -10 10 0 6 5 10 10
10 6 0 10 -4 10 -10z m-3070 -70 c0 -5 -2 -10 -4 -10 -3 0 -8 5 -11 10 -3 6
-1 10 4 10 6 0 11 -4 11 -10z m60 -5 c-7 -9 -15 -13 -19 -10 -3 3 1 10 9 15
21 14 24 12 10 -5z m-178 -37 c5 1 7 -2 3 -8 -8 -13 -32 4 -46 34 -8 17 -6 16
12 -4 12 -14 26 -24 31 -22z m142 13 c3 -5 -1 -11 -9 -15 -9 -3 -15 0 -15 9 0
16 16 20 24 6z m51 -31 c-3 -5 1 -10 10 -10 9 0 13 -5 10 -10 -4 -7 -13 -6
-27 1 -17 9 -18 13 -7 20 18 11 22 11 14 -1z m-45 -4 c0 -2 -7 -6 -15 -10 -8
-3 -15 -1 -15 4 0 6 7 10 15 10 8 0 15 -2 15 -4z m-140 -40 c0 -2 -7 -7 -16
-10 -8 -3 -12 -2 -9 4 6 10 25 14 25 6z m241 -43 c-8 -15 -10 -15 -11 -2 0 17
10 32 18 25 2 -3 -1 -13 -7 -23z m-264 -9 c-3 -3 -12 -4 -19 -1 -8 3 -5 6 6 6
11 1 17 -2 13 -5z m-69 -136 c-3 -7 -13 -15 -24 -17 -16 -3 -17 -1 -5 13 16
19 34 21 29 4z m587 -238 c3 -5 2 -10 -4 -10 -5 0 -13 5 -16 10 -3 6 -2 10 4
10 5 0 13 -4 16 -10z m5 -76 c0 -8 -4 -12 -10 -9 -5 3 -10 10 -10 16 0 5 5 9
10 9 6 0 10 -7 10 -16z m-166 -293 c3 -4 -1 -17 -9 -27 -11 -15 -16 -17 -26
-6 -10 9 -10 12 -1 12 7 0 12 7 12 15 0 16 16 20 24 6z m79 -373 c-3 -35 -10
-65 -15 -67 -5 -2 -13 -14 -18 -27 -11 -27 -34 -33 -27 -6 3 9 11 40 18 67 11
44 35 95 45 95 2 0 1 -28 -3 -62z m2317 -80 c0 -35 16 -56 32 -40 19 19 28 15
28 -13 0 -17 4 -23 15 -19 9 4 16 -3 21 -20 7 -28 32 -34 52 -14 9 9 12 8 12
-4 0 -9 -6 -19 -12 -21 -10 -4 -10 -8 1 -15 7 -5 10 -15 7 -21 -4 -6 -4 -11 1
-11 10 0 33 -48 33 -69 0 -9 9 -31 21 -50 16 -27 18 -36 7 -42 -9 -6 -4 -9 15
-9 25 0 28 -4 26 -27 -1 -16 -1 -37 -1 -47 2 -20 2 -20 17 0 8 10 15 15 15 9
5 -44 5 -67 -2 -71 -16 -10 -7 -22 12 -17 20 5 23 1 35 -51 4 -20 9 -26 14
-18 10 17 41 4 41 -17 0 -9 11 -33 25 -53 20 -30 23 -42 15 -63 -5 -14 -17
-28 -25 -31 -8 -4 -15 -12 -15 -20 0 -8 -4 -14 -10 -14 -5 0 -6 -8 -3 -17 4
-10 8 -12 11 -5 7 22 42 -11 42 -40 0 -21 5 -28 19 -28 19 0 37 32 32 58 -1 8
5 6 18 -5 25 -21 27 -27 5 -19 -12 5 -15 2 -10 -11 4 -9 1 -20 -6 -25 -9 -5
-7 -8 8 -8 11 0 30 -9 42 -20 13 -12 22 -16 22 -9 0 7 3 10 6 7 3 -4 1 -16 -6
-27 -9 -18 -14 -19 -31 -10 -11 5 -33 7 -50 4 -25 -6 -29 -4 -29 14 0 25 -17
36 -34 22 -10 -9 -17 -8 -27 2 -8 7 -30 19 -49 27 -19 7 -39 17 -44 22 -6 4
-16 8 -24 8 -8 0 -20 7 -27 16 -6 9 -24 17 -38 17 -25 0 -33 11 -28 40 1 10
-7 9 -31 -4 -29 -15 -68 6 -68 38 0 13 -4 23 -10 23 -5 0 -10 -4 -10 -10 0
-19 -21 -10 -56 25 -19 19 -37 35 -40 35 -30 0 -125 153 -123 198 1 15 -1 39
-5 53 -8 27 7 49 19 29 4 -6 11 -8 16 -5 5 4 2 17 -7 31 -15 23 -15 26 0 43
15 16 15 20 0 49 -13 28 -14 35 -1 64 8 18 18 42 22 53 7 18 9 18 12 3 10 -42
40 2 34 50 -1 13 3 30 9 38 7 7 10 14 6 14 -4 0 1 11 10 25 20 31 44 32 44 3z
m-116 -55 c-29 -21 -36 -15 -18 19 15 28 17 30 27 13 7 -14 6 -21 -9 -32z
m-2249 -2 c3 -5 1 -12 -5 -16 -5 -3 -10 1 -10 9 0 18 6 21 15 7z m2222 -43 c3
6 9 12 15 12 11 0 1 -40 -16 -57 -9 -10 -14 -5 -22 22 -10 31 -9 33 4 22 12
-9 16 -9 19 1z m363 -148 c0 -5 -5 -10 -11 -10 -5 0 -7 5 -4 10 3 6 8 10 11
10 2 0 4 -4 4 -10z m-415 -60 c3 -5 1 -10 -4 -10 -6 0 -11 5 -11 10 0 6 2 10
4 10 3 0 8 -4 11 -10z m15 -44 c0 -3 -4 -8 -10 -11 -5 -3 -10 -1 -10 4 0 6 5
11 10 11 6 0 10 -2 10 -4z m474 -37 c-3 -5 -10 -7 -15 -3 -5 3 -7 10 -3 15 3
5 10 7 15 3 5 -3 7 -10 3 -15z m-477 -21 c-3 -7 -5 -2 -5 12 0 14 2 19 5 13 2
-7 2 -19 0 -25z m-2342 13 c3 -5 1 -12 -5 -16 -5 -3 -10 1 -10 9 0 18 6 21 15
7z m2408 -226 c4 -8 2 -17 -3 -20 -6 -4 -10 -4 -10 -1 0 2 -3 11 -6 20 -3 9
-2 16 4 16 5 0 12 -7 15 -15z m-2353 -34 c0 -14 -34 -71 -42 -71 -13 0 -9 20
9 51 17 28 33 38 33 20z m-100 -21 c0 -6 -7 -13 -15 -16 -8 -3 -17 -14 -20
-25 -7 -20 -25 -26 -25 -8 0 13 41 59 53 59 4 0 7 -5 7 -10z m2395 -39 c3 -5
0 -13 -6 -16 -10 -7 -38 21 -39 38 0 9 36 -9 45 -22z m-66 0 c12 -8 12 -12 2
-25 -12 -15 -15 -15 -26 1 -20 28 -5 42 24 24z m46 -56 c0 -19 -6 -31 -16 -33
-9 -1 -16 3 -16 10 0 7 -2 18 -3 23 -6 23 1 36 17 33 12 -2 18 -13 18 -33z
m105 25 c0 -5 -2 -10 -4 -10 -3 0 -8 5 -11 10 -3 6 -1 10 4 10 6 0 11 -4 11
-10z m555 0 c3 -5 1 -10 -4 -10 -6 0 -11 5 -11 10 0 6 2 10 4 10 3 0 8 -4 11
-10z m40 -10 c-3 -5 -10 -10 -16 -10 -5 0 -9 5 -9 10 0 6 7 10 16 10 8 0 12
-4 9 -10z m-745 -30 c0 -5 -4 -10 -10 -10 -5 0 -10 5 -10 10 0 6 5 10 10 10 6
0 10 -4 10 -10z m248 -33 c6 3 12 0 12 -6 0 -6 -7 -11 -16 -11 -22 0 -12 -23
12 -26 73 -9 127 -23 135 -35 5 -8 9 -10 9 -5 0 5 7 3 15 -4 8 -6 19 -9 25 -5
6 4 16 2 23 -3 7 -5 29 -15 50 -21 37 -13 45 -27 27 -49 -7 -8 -7 -9 1 -3 6 5
18 7 25 4 8 -3 14 0 14 6 0 6 7 8 15 5 19 -7 20 -34 2 -34 -8 0 -24 -12 -38
-27 -17 -18 -19 -24 -7 -20 39 14 26 -46 -19 -84 -16 -14 -27 -32 -25 -41 2
-10 -3 -18 -10 -18 -8 0 -25 -14 -37 -31 -16 -21 -26 -28 -33 -21 -13 13 -2
32 18 32 8 0 14 7 14 15 0 8 5 15 10 15 6 0 10 5 10 10 0 15 -26 12 -39 -4
-16 -19 -61 -27 -54 -9 7 19 -7 16 -22 -4 -19 -26 -43 -2 -37 37 4 29 4 30
-23 20 -15 -6 -30 -8 -33 -5 -3 3 0 5 7 5 7 0 10 4 7 8 -3 5 -18 7 -34 4 -24
-3 -31 1 -37 20 -4 12 -7 26 -6 30 0 4 -6 5 -14 1 -9 -3 -25 3 -35 12 -19 17
-20 17 -20 -3 0 -12 -2 -22 -4 -22 -2 0 -12 -3 -22 -7 -12 -4 -15 -2 -12 8 3
8 -2 20 -11 27 -14 12 -14 12 4 8 14 -4 26 3 38 19 18 25 18 25 -8 25 -14 0
-24 4 -21 9 8 12 -17 61 -31 61 -23 0 -1 29 27 35 15 3 31 15 36 25 9 19 10
19 43 -7 l34 -27 -24 -9 -24 -9 23 -9 c26 -10 29 -44 5 -58 -10 -6 -14 -11 -9
-11 5 0 1 -9 -10 -21 -15 -17 -16 -22 -4 -29 19 -12 28 -2 10 11 -12 8 -10 10
8 6 12 -3 20 -1 16 4 -3 5 -1 9 5 9 16 0 58 62 66 97 6 29 4 32 -12 26 -10 -4
-23 -14 -30 -22 -13 -17 -13 -17 -17 18 -2 14 -8 27 -15 29 -9 3 -9 7 0 18 9
11 7 14 -9 14 -12 0 -24 5 -27 10 -4 6 -1 9 6 8 12 -3 14 1 18 34 0 7 10 3 24
-9 12 -11 28 -18 35 -16z m-2818 7 c0 -8 -5 -12 -10 -9 -6 4 -8 11 -5 16 9 14
15 11 15 -7z m2662 -11 c9 -10 19 -29 22 -43 5 -17 4 -21 -2 -11 -5 7 -15 10
-21 7 -6 -4 -11 -2 -11 5 0 6 -7 17 -17 24 -9 7 -13 17 -9 23 10 17 20 15 38
-5z m-32 -57 c0 -2 -7 -7 -16 -10 -8 -3 -12 -2 -9 4 6 10 25 14 25 6z m-2630
-52 c0 -8 -5 -12 -10 -9 -6 4 -8 11 -5 16 9 14 15 11 15 -7z m3290 -94 c0 -5
15 -16 33 -23 17 -8 45 -27 60 -43 21 -20 30 -25 36 -16 6 10 11 9 21 -3 12
-14 11 -18 -1 -26 -10 -8 -8 -9 8 -4 17 5 25 0 38 -24 8 -17 20 -31 25 -31 5
0 21 -26 36 -57 14 -32 35 -68 47 -80 11 -13 15 -23 9 -23 -7 0 -12 -4 -12
-10 0 -5 6 -10 13 -10 15 0 39 -82 31 -104 -4 -10 1 -18 11 -22 13 -5 14 -9 3
-15 -20 -13 -25 -11 -50 15 -13 13 -31 26 -40 29 -25 9 -28 -16 -4 -30 12 -7
15 -12 9 -13 -7 0 -30 16 -50 35 -20 19 -44 35 -53 35 -8 0 -30 9 -49 21 -19
11 -42 18 -52 16 -10 -3 -26 4 -36 16 -12 14 -13 18 -3 12 12 -6 11 -4 -1 10
-13 13 -21 15 -35 7 -14 -8 -23 -7 -36 4 -15 14 -35 21 -65 23 -6 1 -13 13
-15 29 -2 22 -7 27 -30 25 -20 -1 -28 4 -32 23 -4 13 -2 33 4 44 16 29 13 45
-5 30 -13 -11 -14 -10 -10 3 4 8 17 18 31 21 13 4 24 11 24 16 0 20 45 80 56
76 7 -3 10 4 7 17 -4 17 -2 19 5 8 7 -10 18 -11 38 -6 22 6 24 9 11 12 -9 3
-15 9 -12 14 8 12 35 12 35 -1z m-530 -110 c0 -5 -10 -10 -22 -10 -19 0 -20 2
-8 10 19 13 30 13 30 0z m-10 -44 c0 -3 -4 -8 -10 -11 -5 -3 -10 -1 -10 4 0 6
5 11 10 11 6 0 10 -2 10 -4z m-5413 -198 c-3 -8 -6 -5 -6 6 -1 11 2 17 5 13 3
-3 4 -12 1 -19z m5323 -8 c0 -5 -4 -10 -10 -10 -5 0 -10 5 -10 10 0 6 5 10 10
10 6 0 10 -4 10 -10z m-35 -40 c-3 -5 -14 -10 -23 -10 -15 0 -15 2 -2 10 20
13 33 13 25 0z m115 4 c0 -15 -15 -34 -27 -34 -8 0 -11 5 -8 10 10 16 0 12
-25 -10 -13 -11 -31 -20 -41 -20 -9 0 -19 -5 -21 -12 -3 -7 -7 -4 -12 7 -4 11
-4 16 0 13 4 -4 15 3 26 17 16 21 35 27 96 31 6 0 12 0 12 -2z m585 -14 c3 -5
2 -10 -4 -10 -5 0 -13 5 -16 10 -3 6 -2 10 4 10 5 0 13 -4 16 -10z m135 -37
c0 -21 -16 -15 -33 11 -16 23 -15 23 8 12 14 -6 25 -17 25 -23z m-952 -8 c-4
-14 -27 -15 -35 -3 -3 7 -1 8 5 4 7 -4 12 -2 12 4 0 7 5 10 11 8 6 -2 9 -8 7
-13z m242 5 c0 -5 -5 -10 -11 -10 -5 0 -7 5 -4 10 3 6 8 10 11 10 2 0 4 -4 4
-10z m-17 -65 c-3 -9 -8 -14 -10 -11 -3 3 -2 9 2 15 9 16 15 13 8 -4z m-100
-15 c18 0 39 -4 47 -10 21 -13 -4 -55 -54 -92 -21 -15 -35 -28 -31 -28 5 0 -2
-11 -15 -25 -23 -24 -47 -35 -35 -15 4 6 -7 10 -27 10 l-33 1 33 28 c35 30 40
41 17 41 -19 0 -19 14 0 30 8 6 17 22 21 33 8 25 37 50 42 36 2 -5 18 -9 35
-9z m97 -63 c0 -7 10 -18 21 -25 16 -10 19 -16 10 -25 -9 -9 -14 -9 -20 2 -7
10 -11 9 -22 -6 -18 -25 -42 -34 -60 -22 -10 6 -10 9 -1 9 6 0 11 3 10 8 -5
14 42 83 52 77 6 -3 10 -12 10 -18z m905 -47 c3 -5 1 -10 -4 -10 -6 0 -11 5
-11 10 0 6 2 10 4 10 3 0 8 -4 11 -10z m-995 -24 c0 -3 -4 -8 -10 -11 -5 -3
-10 -1 -10 4 0 6 5 11 10 11 6 0 10 -2 10 -4z m100 -46 c0 -5 -5 -10 -11 -10
-5 0 -7 5 -4 10 3 6 8 10 11 10 2 0 4 -4 4 -10z m-230 -15 c-32 -19 -47 -19
-54 0 -4 12 3 15 37 15 41 -1 42 -1 17 -15z m103 -19 c7 -17 -43 -66 -66 -66
-25 0 -10 24 23 37 17 6 30 17 30 23 0 7 -7 10 -16 6 -8 -3 -12 -2 -9 4 9 15
32 12 38 -4z m1107 -26 c0 -13 -5 -18 -15 -14 -12 5 -13 10 -4 20 15 19 19 18
19 -6z m-1220 -10 c0 -6 -6 -13 -14 -16 -7 -3 -22 -21 -32 -40 -10 -19 -24
-34 -31 -34 -18 0 -16 10 5 26 16 13 16 13 -2 14 -20 0 -13 15 7 15 7 0 11 9
9 20 -2 17 -1 17 8 5 9 -13 12 -13 21 3 11 19 29 23 29 7z m1440 -36 c0 -13
-4 -24 -10 -24 -5 0 -10 14 -10 31 0 17 4 28 10 24 6 -3 10 -17 10 -31z
m-1436 -99 c-4 -8 -13 -15 -21 -15 -13 0 -13 3 -3 15 7 8 16 15 21 15 5 0 6
-7 3 -15z m66 -23 c0 -13 -12 -22 -22 -16 -10 6 -1 24 13 24 5 0 9 -4 9 -8z
m1200 -23 c0 -5 4 -8 9 -4 6 3 15 -3 20 -14 15 -27 13 -40 -2 -20 -7 8 -20 18
-29 22 -19 7 -25 27 -8 27 6 0 10 -5 10 -11z m-6410 -14 c0 -8 -2 -15 -4 -15
-2 0 -6 7 -10 15 -3 8 -1 15 4 15 6 0 10 -7 10 -15z m5059 -216 c14 22 22 -5
10 -33 -18 -39 -39 -33 -37 9 1 23 4 31 10 23 6 -11 10 -10 17 1z m-45 -65 c3
-8 2 -12 -4 -9 -6 3 -10 10 -10 16 0 14 7 11 14 -7z m926 -665 c-8 -14 -7 -17
3 -13 8 3 17 -2 20 -10 8 -20 -3 -20 -31 0 -17 11 -20 19 -13 28 6 7 8 16 4
20 -4 4 0 4 10 1 13 -6 14 -11 7 -26z m-253 5 c-3 -3 -12 -4 -19 -1 -8 3 -5 6
6 6 11 1 17 -2 13 -5z m313 -14 c0 -5 -2 -10 -4 -10 -3 0 -8 5 -11 10 -3 6 -1
10 4 10 6 0 11 -4 11 -10z m59 -52 c-10 -18 -9 -19 13 -7 13 6 26 17 30 23 5
7 8 5 8 -5 0 -18 26 -34 32 -20 5 13 145 -69 192 -111 25 -24 33 -35 21 -32
-19 7 -19 6 -3 -12 14 -14 21 -16 30 -6 19 19 26 15 33 -18 5 -23 12 -30 29
-30 30 0 37 -9 26 -30 -7 -13 -4 -22 10 -35 11 -10 20 -24 20 -32 0 -7 8 -13
19 -13 10 0 24 -7 31 -15 7 -9 21 -13 31 -10 21 7 25 -5 9 -21 -8 -8 -6 -15 5
-24 18 -15 20 -34 3 -24 -9 6 -9 3 0 -9 8 -9 11 -21 7 -27 -3 -5 0 -12 7 -15
8 -3 14 -27 16 -64 l3 -59 -25 11 c-14 7 -31 22 -37 35 -7 12 -15 22 -18 22
-12 0 -58 45 -70 68 -7 13 -15 21 -18 18 -3 -2 -15 5 -27 18 -11 13 -46 40
-76 61 -52 36 -165 127 -202 161 -9 9 -14 22 -11 30 3 9 0 12 -8 9 -8 -3 -26
12 -43 35 -16 21 -33 37 -38 34 -4 -3 -8 -1 -8 4 0 6 7 12 15 16 8 3 15 1 15
-4 0 -6 7 -10 15 -10 8 0 20 -8 26 -19 7 -11 20 -16 30 -14 11 3 23 -3 31 -17
7 -12 28 -28 46 -35 17 -8 32 -19 32 -24 0 -6 7 -11 15 -11 7 0 18 -7 23 -16
5 -10 12 -12 15 -7 8 13 -92 115 -104 107 -5 -3 -12 2 -15 11 -4 9 -36 30 -73
46 -36 17 -74 38 -83 46 -9 8 -21 12 -27 9 -16 -10 -23 12 -10 32 10 17 17 18
41 10 24 -8 26 -13 17 -30z m-482 -5 c3 -7 9 -10 15 -7 5 3 17 -1 26 -9 19
-17 87 -42 145 -52 36 -7 47 -18 28 -30 -5 -3 -12 -18 -16 -35 -5 -21 -11 -27
-22 -23 -13 5 -15 2 -10 -13 6 -15 2 -13 -14 6 -12 14 -26 25 -33 26 -31 3
-35 5 -30 17 3 10 -4 14 -23 15 -37 1 -139 39 -180 67 -24 16 -30 24 -21 33 8
8 17 7 33 -4 23 -15 43 -5 30 16 -3 5 9 9 31 8 20 -1 38 -7 41 -15z m453 -74
c0 -6 -4 -7 -10 -4 -5 3 -10 11 -10 16 0 6 5 7 10 4 6 -3 10 -11 10 -16z
m-573 -61 c-3 -8 -6 -5 -6 6 -1 11 2 17 5 13 3 -3 4 -12 1 -19z m-148 -21 c6
-8 8 -17 5 -20 -10 -9 -45 13 -39 24 9 13 21 11 34 -4z m-109 -23 c0 -8 -5
-12 -10 -9 -6 4 -8 11 -5 16 9 14 15 11 15 -7z m3 -50 c1 -3 -13 -8 -30 -10
-18 -2 -33 0 -33 5 0 6 12 11 28 13 30 4 33 3 35 -8z m667 -34 c0 -5 -7 -10
-15 -10 -8 0 -15 5 -15 10 0 6 7 10 15 10 8 0 15 -4 15 -10z m-1383 -132 c-3
-7 -5 -2 -5 12 0 14 2 19 5 13 2 -7 2 -19 0 -25z m783 22 c0 -5 -5 -10 -11
-10 -5 0 -7 5 -4 10 3 6 8 10 11 10 2 0 4 -4 4 -10z m360 -4 c0 -3 -4 -8 -10
-11 -5 -3 -10 -1 -10 4 0 6 5 11 10 11 6 0 10 -2 10 -4z m-364 -53 c13 -17 13
-17 14 0 0 10 5 15 10 12 17 -11 -8 -34 -30 -28 -15 4 -18 1 -13 -16 3 -12 1
-21 -6 -21 -6 0 -11 6 -11 14 0 8 -6 17 -12 19 -8 3 -6 6 5 6 9 1 17 8 17 16
0 20 10 19 26 -2z m77 -17 c8 5 8 2 0 -7 -7 -7 -13 -19 -13 -25 0 -15 39 -15
58 -1 8 7 12 5 12 -7 0 -9 -11 -21 -25 -26 -14 -5 -25 -15 -25 -21 0 -9 -3 -9
-14 0 -11 9 -12 7 -9 -11 5 -29 -34 -59 -48 -36 -5 7 -16 13 -25 13 -29 0 -27
24 3 37 38 16 63 38 63 55 0 8 -4 11 -10 8 -13 -8 -13 2 2 28 11 19 13 20 16
4 2 -10 9 -14 15 -11z m1396 -41 c0 -5 -4 -3 -9 5 -5 8 -9 22 -9 30 0 16 17
-16 18 -35z m-2262 13 c-3 -8 -6 -5 -6 6 -1 11 2 17 5 13 3 -3 4 -12 1 -19z
m733 -12 c0 -3 -4 -8 -10 -11 -5 -3 -10 -1 -10 4 0 6 5 11 10 11 6 0 10 -2 10
-4z m-730 -31 c0 -14 -4 -25 -10 -25 -11 0 -14 33 -3 43 11 11 13 8 13 -18z
m922 -27 c-9 -4 -24 -7 -32 -7 -8 0 -5 4 8 9 12 5 22 15 22 22 0 9 3 8 10 -2
7 -11 5 -17 -8 -22z m-48 -33 c-4 -8 -11 -15 -16 -15 -6 0 -5 6 2 15 7 8 14
15 16 15 2 0 1 -7 -2 -15z m-120 -19 c7 3 19 -2 26 -11 10 -12 10 -15 -4 -15
-9 0 -16 5 -16 10 0 6 -5 9 -12 8 -6 -2 -13 4 -13 12 -1 8 0 10 2 3 2 -7 10
-10 17 -7z m1492 -74 c-3 -2 1 -17 9 -33 8 -15 15 -34 15 -41 -1 -13 -7 -6
-47 52 -10 13 -28 35 -40 47 l-22 23 24 0 c19 0 25 5 25 23 0 16 6 10 20 -22
11 -24 18 -46 16 -49z m74 46 c0 -5 -4 -8 -10 -8 -5 0 -10 10 -10 23 0 18 2
19 10 7 5 -8 10 -18 10 -22z m-50 -12 c0 -3 -4 -8 -10 -11 -5 -3 -10 -1 -10 4
0 6 5 11 10 11 6 0 10 -2 10 -4z m10 -36 c0 -5 -5 -10 -11 -10 -5 0 -7 5 -4
10 3 6 8 10 11 10 2 0 4 -4 4 -10z m100 -158 c0 -28 -19 1 -26 38 l-6 35 16
-29 c9 -15 16 -35 16 -44z m-50 15 c0 -18 -2 -19 -10 -7 -13 20 -13 43 0 35 6
-3 10 -16 10 -28z m-2333 1 c-3 -8 -6 -5 -6 6 -1 11 2 17 5 13 3 -3 4 -12 1
-19z m3 -22 c0 -3 -4 -8 -10 -11 -5 -3 -10 -1 -10 4 0 6 5 11 10 11 6 0 10 -2
10 -4z m875 -36 c3 -5 1 -10 -4 -10 -6 0 -11 5 -11 10 0 6 2 10 4 10 3 0 8 -4
11 -10z m172 -72 c-2 -7 0 -23 4 -35 9 -25 0 -36 -20 -23 -9 5 -10 13 -5 21 9
14 10 19 13 39 0 6 4 10 7 10 3 0 4 -6 1 -12z m1263 -48 c0 -5 -2 -10 -4 -10
-3 0 -8 5 -11 10 -3 6 -1 10 4 10 6 0 11 -4 11 -10z"/>
<path d="M5290 9960 c0 -5 5 -10 11 -10 5 0 7 5 4 10 -3 6 -8 10 -11 10 -2 0
-4 -4 -4 -10z"/>
<path d="M5950 9891 c0 -6 5 -13 10 -16 6 -3 10 1 10 9 0 9 -4 16 -10 16 -5 0
-10 -4 -10 -9z"/>
<path d="M6310 9880 c-8 -5 -11 -12 -8 -16 10 -9 38 3 38 16 0 12 -10 13 -30
0z"/>
<path d="M6365 9850 c-3 -5 -1 -10 4 -10 6 0 11 5 11 10 0 6 -2 10 -4 10 -3 0
-8 -4 -11 -10z"/>
<path d="M4983 9825 c0 -8 4 -12 9 -9 5 3 6 10 3 15 -9 13 -12 11 -12 -6z"/>
<path d="M6056 9785 c-3 -8 -1 -15 4 -15 6 0 10 7 10 15 0 8 -2 15 -4 15 -2 0
-6 -7 -10 -15z"/>
<path d="M6077 9763 c-12 -11 -8 -19 22 -41 25 -18 30 -19 35 -6 3 9 1 14 -7
13 -22 -4 -46 12 -40 27 5 15 1 18 -10 7z"/>
<path d="M6175 9633 c2 -10 4 -20 4 -23 1 -3 5 2 10 10 10 15 6 30 -9 30 -4 0
-7 -8 -5 -17z"/>
<path d="M6215 9570 c4 -6 11 -8 16 -5 14 9 11 15 -7 15 -8 0 -12 -5 -9 -10z"/>
<path d="M6240 9525 c0 -7 8 -23 18 -36 15 -17 21 -19 27 -9 5 8 4 11 -2 7 -6
-4 -14 1 -17 10 -4 9 -2 20 5 23 6 5 3 9 -10 13 -13 3 -21 0 -21 -8z"/>
<path d="M4503 9515 c-3 -9 -3 -18 -1 -21 3 -3 8 4 11 16 6 23 -1 27 -10 5z"/>
<path d="M6120 9470 c0 -5 5 -10 10 -10 6 0 10 5 10 10 0 6 -4 10 -10 10 -5 0
-10 -4 -10 -10z"/>
<path d="M6296 9441 c-4 -7 -5 -15 -2 -18 9 -9 19 4 14 18 -4 11 -6 11 -12 0z"/>
<path d="M6135 9410 c-3 -5 -1 -10 4 -10 6 0 11 5 11 10 0 6 -2 10 -4 10 -3 0
-8 -4 -11 -10z"/>
<path d="M5872 9044 c-7 -8 -8 -14 -3 -14 10 0 25 19 20 25 -2 1 -10 -3 -17
-11z"/>
<path d="M6567 8531 c-10 -4 -24 -19 -32 -35 -17 -32 -20 -102 -5 -111 6 -3
10 -1 10 5 0 5 10 30 21 55 18 39 19 48 8 62 -8 10 -9 14 -2 10 6 -4 15 -2 18
4 9 14 3 18 -18 10z"/>
<path d="M6521 8294 c0 -11 3 -14 6 -6 3 7 2 16 -1 19 -3 4 -6 -2 -5 -13z"/>
<path d="M6510 8171 c0 -11 6 -22 13 -25 10 -5 10 -7 0 -12 -7 -3 -13 -12 -13
-20 0 -9 4 -13 9 -10 5 3 15 -2 22 -11 12 -15 12 -16 -4 -10 -16 6 -17 2 -11
-31 8 -46 20 -60 36 -44 9 9 8 12 -7 12 -14 0 -16 3 -8 11 14 14 6 127 -9 147
-15 18 -28 15 -28 -7z"/>
<path d="M5405 8085 c-6 -46 -4 -60 15 -91 25 -40 100 -99 111 -87 4 5 10 18
13 29 6 19 2 23 -28 28 -22 4 -37 14 -41 26 -4 11 -13 27 -22 35 -9 10 -15 33
-15 65 1 36 -3 50 -13 50 -9 0 -16 -18 -20 -55z"/>
<path d="M5658 8081 c-46 -29 -93 -84 -84 -99 2 -4 24 -17 48 -29 33 -17 58
-21 101 -19 32 1 60 -1 63 -6 3 -5 9 -6 15 -3 14 9 78 -6 94 -21 23 -23 45 7
35 48 -19 78 -52 123 -98 134 -15 3 -43 10 -62 15 -52 13 -62 12 -112 -20z"/>
<path d="M4700 8093 c-14 -3 -32 -11 -40 -18 -8 -7 -27 -17 -42 -20 -16 -4
-28 -11 -28 -15 0 -5 -14 -11 -30 -15 -17 -4 -35 -16 -42 -28 -11 -21 -11 -21
17 -3 16 11 36 20 44 21 9 1 29 7 45 14 16 6 36 9 44 6 8 -3 20 -1 27 5 7 6
17 10 21 9 5 -1 21 1 36 5 l28 8 -24 19 c-13 10 -26 18 -28 18 -1 -1 -14 -4
-28 -6z"/>
<path d="M6555 7990 c-3 -5 1 -10 9 -10 9 0 16 5 16 10 0 6 -4 10 -9 10 -6 0
-13 -4 -16 -10z"/>
<path d="M4600 7935 c-6 -8 -10 -20 -7 -27 4 -8 6 -7 6 4 1 9 9 22 19 27 9 6
12 11 6 11 -6 0 -17 -7 -24 -15z"/>
<path d="M6255 7841 c-6 -11 -81 -23 -164 -26 -40 -2 -67 -8 -72 -16 -7 -12
-9 -12 -9 0 0 7 -6 11 -15 7 -8 -3 -21 4 -29 16 -9 12 -18 19 -22 15 -3 -3 1
-13 10 -23 13 -12 14 -19 6 -29 -8 -10 -8 -20 1 -37 7 -13 11 -24 10 -26 -8
-9 23 -61 33 -55 6 4 5 0 -2 -9 -18 -23 -6 -94 14 -77 7 6 38 12 67 12 45 2
53 -1 49 -13 -3 -8 13 4 35 28 27 27 40 51 39 66 -1 19 -5 22 -17 16 -13 -7
-16 -3 -17 27 -1 27 1 34 10 25 8 -8 14 -8 22 4 6 8 21 16 34 17 20 1 27 9 23
31 -1 5 5 6 13 3 9 -4 18 -1 22 5 4 6 3 8 -4 4 -6 -3 -14 -1 -18 5 -3 6 -1 15
6 19 8 5 8 9 -4 13 -8 3 -18 2 -21 -2z m-239 -126 c-1 -8 -7 -20 -13 -26 -9
-9 -11 -7 -8 7 2 11 4 22 4 27 1 4 5 7 10 7 5 0 8 -7 7 -15z m149 -5 c3 -5 1
-10 -4 -10 -6 0 -11 5 -11 10 0 6 2 10 4 10 3 0 8 -4 11 -10z"/>
<path d="M4725 7800 c-3 -5 -10 -8 -15 -5 -5 3 -19 -5 -33 -18 -19 -20 -23
-33 -21 -71 4 -54 11 -69 30 -62 8 3 14 1 14 -3 0 -5 9 -7 19 -4 15 4 21 -2
26 -26 4 -17 11 -29 16 -25 5 3 13 -6 19 -21 13 -35 48 -84 88 -121 17 -18 32
-41 32 -52 0 -11 6 -22 14 -25 7 -3 16 -21 20 -40 4 -19 13 -38 21 -41 8 -3
15 -12 15 -19 0 -8 7 -20 15 -27 8 -7 15 -24 15 -37 0 -17 4 -23 14 -20 17 7
77 -56 79 -83 1 -11 4 -20 8 -20 4 0 24 -25 44 -55 21 -30 43 -55 48 -55 5 0
23 -10 40 -22 55 -39 79 -49 92 -38 9 7 16 6 25 -5 10 -12 15 -12 35 1 22 15
23 14 21 -10 -3 -20 4 -31 31 -47 18 -11 32 -28 31 -36 -3 -18 56 -53 88 -53
12 0 24 -7 28 -15 3 -8 10 -15 16 -15 6 0 9 4 5 9 -9 15 16 25 26 10 6 -9 12
-10 17 -4 8 12 32 13 49 2 7 -4 16 0 21 9 6 10 12 13 16 6 6 -11 43 -5 62 9 6
5 13 6 16 3 3 -3 34 22 68 55 64 62 86 73 97 46 5 -14 7 -14 22 -1 15 14 17
13 18 -4 1 -11 -2 -20 -8 -20 -5 0 -9 -4 -9 -8 0 -4 9 -8 21 -8 14 0 19 5 16
18 -4 13 0 17 17 15 12 -1 20 3 19 11 -2 6 1 12 6 12 5 0 12 -6 14 -12 3 -7 6
-2 6 12 1 18 4 21 10 11 11 -17 23 1 15 22 -3 8 2 17 12 21 11 4 15 2 11 -8
-13 -34 8 -21 35 21 16 25 26 49 21 54 -13 13 -67 23 -60 12 9 -14 -36 -22
-56 -11 -8 4 -30 34 -48 65 -18 32 -40 70 -49 85 -32 56 -87 110 -130 130 -25
11 -54 24 -65 30 -14 8 -20 8 -23 0 -2 -8 -11 -8 -30 2 -15 7 -44 16 -64 20
-22 4 -42 15 -48 26 -6 12 -16 17 -26 13 -10 -4 -17 2 -21 16 -3 11 -11 21
-19 21 -7 0 -28 13 -46 28 -37 31 -87 57 -105 53 -7 -1 -13 3 -13 9 0 6 -4 9
-9 5 -5 -3 -12 -1 -16 5 -4 6 -9 9 -13 6 -4 -2 -34 1 -67 6 -84 13 -85 13
-135 28 -25 8 -48 13 -53 12 -17 -4 -112 21 -182 49 -16 7 -32 13 -35 14 -32
8 -50 19 -50 29 0 7 -10 23 -22 36 -13 13 -27 37 -33 54 -12 34 -49 63 -60 46z
m535 -321 c0 -11 -4 -17 -10 -14 -5 3 -10 13 -10 21 0 8 5 14 10 14 6 0 10 -9
10 -21z m100 -11 c0 -13 -23 -5 -28 10 -2 7 2 10 12 6 9 -3 16 -11 16 -16z
m70 -53 c0 -9 -6 -12 -15 -9 -8 4 -12 10 -9 15 8 14 24 10 24 -6z m-201 -102
c75 -36 149 -78 164 -92 73 -67 79 -75 74 -104 -2 -18 1 -31 9 -34 7 -2 10
-12 8 -21 -5 -15 -4 -15 9 1 10 12 22 15 46 11 17 -4 37 -2 44 4 18 16 82 -3
100 -28 8 -11 17 -17 20 -14 11 12 98 -47 108 -73 12 -32 5 -42 -12 -15 -12
19 -14 19 -25 4 -9 -12 -15 -14 -25 -5 -8 6 -43 14 -78 18 -52 6 -64 11 -69
28 l-5 21 -8 -21 c-5 -14 -19 -22 -46 -25 -42 -6 -67 7 -60 32 5 19 -19 57
-29 47 -4 -3 -19 3 -35 14 l-28 20 -11 -21 c-9 -17 -14 -19 -26 -9 -8 6 -14 8
-15 3 0 -5 -4 1 -9 14 -9 21 -30 31 -30 13 0 -9 -43 -7 -59 4 -15 9 -14 21 4
38 13 13 13 17 0 27 -8 7 -12 16 -9 21 3 5 -2 9 -10 9 -9 0 -16 5 -16 11 0 5
-4 7 -10 4 -6 -3 -7 1 -4 10 4 10 -1 22 -15 31 -11 8 -21 22 -21 30 0 8 -7 14
-15 14 -8 0 -24 13 -36 29 -12 17 -28 27 -37 24 -12 -3 -17 3 -18 21 -3 40 24
34 175 -41z m-205 12 c-4 -8 -8 -15 -10 -15 -2 0 -4 7 -4 15 0 8 4 15 10 15 5
0 7 -7 4 -15z m216 -185 c0 -5 -2 -10 -4 -10 -3 0 -8 5 -11 10 -3 6 -1 10 4
10 6 0 11 -4 11 -10z m760 -245 c0 -8 -4 -15 -10 -15 -5 0 -10 7 -10 15 0 8 5
15 10 15 6 0 10 -7 10 -15z"/>
<path d="M6056 7572 c-3 -5 1 -9 9 -9 8 0 12 4 9 9 -3 4 -7 8 -9 8 -2 0 -6 -4
-9 -8z"/>
<path d="M6280 7050 c0 -5 7 -10 15 -10 8 0 15 5 15 10 0 6 -7 10 -15 10 -8 0
-15 -4 -15 -10z"/>
<path d="M6232 7000 c-8 -17 -18 -28 -23 -24 -5 3 -9 -5 -9 -18 1 -22 3 -21
30 12 17 19 30 38 30 42 0 4 8 5 18 2 14 -5 15 -4 2 5 -24 17 -34 13 -48 -19z"/>
<path d="M5340 6786 c0 -3 8 -14 18 -24 15 -15 21 -16 30 -6 12 13 -3 32 -15
20 -3 -3 -12 -1 -20 5 -7 6 -13 9 -13 5z"/>
<path d="M5473 6664 c1 -19 4 -20 25 -11 18 8 25 8 31 -2 7 -11 10 -11 16 0 6
9 10 8 16 -7 7 -17 8 -17 8 -1 1 19 16 23 26 7 10 -16 32 -12 37 8 4 15 -3 17
-61 17 -36 0 -71 -3 -78 -8 -6 -4 -13 -1 -16 5 -3 7 -5 3 -4 -8z"/>
<path d="M5680 6510 c0 -5 5 -10 11 -10 5 0 7 5 4 10 -3 6 -8 10 -11 10 -2 0
-4 -4 -4 -10z"/>
<path d="M5300 6165 c0 -8 2 -15 4 -15 2 0 6 7 10 15 3 8 1 15 -4 15 -6 0 -10
-7 -10 -15z"/>
<path d="M6915 8810 c-8 -13 15 -13 35 0 12 8 11 10 -7 10 -12 0 -25 -4 -28
-10z"/>
<path d="M7185 8800 c3 -5 11 -10 16 -10 6 0 7 5 4 10 -3 6 -11 10 -16 10 -6
0 -7 -4 -4 -10z"/>
<path d="M4051 6301 c-8 -5 -9 -11 -3 -15 5 -3 12 1 16 9 6 17 6 18 -13 6z"/>
<path d="M3823 6345 c-3 -9 -3 -18 -1 -21 3 -3 8 4 11 16 6 23 -1 27 -10 5z"/>
<path d="M3880 6323 c0 -15 19 -37 26 -31 3 4 -1 14 -10 23 -9 9 -16 13 -16 8z"/>
<path d="M3850 6306 c0 -9 5 -16 10 -16 6 0 10 4 10 9 0 6 -4 13 -10 16 -5 3
-10 -1 -10 -9z"/>
<path d="M3755 6240 c3 -5 13 -10 21 -10 8 0 12 5 9 10 -3 6 -13 10 -21 10 -8
0 -12 -4 -9 -10z"/>
<path d="M3811 6224 c0 -11 3 -14 6 -6 3 7 2 16 -1 19 -3 4 -6 -2 -5 -13z"/>
<path d="M3740 6209 c0 -5 5 -7 10 -4 6 3 10 8 10 11 0 2 -4 4 -10 4 -5 0 -10
-5 -10 -11z"/>
<path d="M3780 6201 c0 -6 4 -13 10 -16 6 -3 7 1 4 9 -7 18 -14 21 -14 7z"/>
<path d="M3977 6199 c7 -7 15 -10 18 -7 3 3 -2 9 -12 12 -14 6 -15 5 -6 -5z"/>
<path d="M4047 6143 c-4 -3 -7 -16 -6 -27 0 -19 1 -19 10 3 10 24 8 36 -4 24z"/>
<path d="M4094 6085 c-2 -21 1 -25 18 -19 13 4 24 1 29 -7 7 -12 9 -12 9 -1 0
8 -9 16 -20 19 -11 3 -20 12 -20 19 0 25 -15 15 -16 -11z"/>
<path d="M4140 6106 c0 -2 6 -9 13 -15 10 -8 14 -7 14 4 0 8 -6 15 -14 15 -7
0 -13 -2 -13 -4z"/>
<path d="M3685 6069 c-11 -17 1 -21 15 -4 8 9 8 15 2 15 -6 0 -14 -5 -17 -11z"/>
<path d="M3642 6008 c5 -15 28 -23 28 -10 0 5 -7 13 -16 16 -10 4 -14 1 -12
-6z"/>
<path d="M3538 5838 c-3 -39 -5 -43 -28 -40 -14 2 -21 0 -17 -4 4 -4 15 -9 24
-10 46 -7 66 -16 55 -23 -10 -6 -10 -10 1 -20 12 -9 18 -6 31 14 14 21 14 24
1 18 -13 -4 -15 0 -10 20 4 13 2 28 -3 31 -5 3 -9 -2 -8 -11 0 -9 -5 -18 -12
-20 -9 -4 -11 2 -7 20 8 28 -2 67 -15 67 -5 0 -10 -19 -12 -42z"/>
<path d="M3430 5800 c0 -5 5 -10 10 -10 6 0 10 5 10 10 0 6 -4 10 -10 10 -5 0
-10 -4 -10 -10z"/>
<path d="M3494 5746 c-9 -20 -9 -23 2 -19 8 3 14 14 14 24 0 25 -3 24 -16 -5z"/>
<path d="M3650 5762 c0 -5 7 -15 15 -22 8 -7 15 -8 15 -2 0 5 -7 15 -15 22 -8
7 -15 8 -15 2z"/>
<path d="M3613 5735 c0 -8 4 -12 8 -9 4 2 10 0 14 -6 8 -13 25 -13 25 0 0 6
-7 10 -15 10 -8 0 -15 5 -15 10 0 6 -4 10 -8 10 -5 0 -9 -7 -9 -15z"/>
<path d="M3560 5705 c-7 -8 -19 -15 -26 -15 -8 0 -14 -7 -14 -15 0 -8 9 -15
21 -15 12 0 17 4 14 11 -4 5 1 19 11 30 9 10 15 19 12 19 -3 0 -11 -7 -18 -15z"/>
<path d="M3340 5700 c0 -5 7 -10 15 -10 8 0 14 -3 13 -7 -2 -5 0 -9 5 -10 18
-7 19 -2 2 17 -20 22 -35 26 -35 10z"/>
<path d="M3410 5707 c0 -2 9 -14 20 -27 11 -13 20 -18 20 -12 0 6 -7 18 -16
26 -15 15 -24 20 -24 13z"/>
<path d="M3680 5700 c0 -5 5 -10 11 -10 5 0 7 5 4 10 -3 6 -8 10 -11 10 -2 0
-4 -4 -4 -10z"/>
<path d="M3577 5665 c3 -8 9 -12 14 -9 12 7 11 11 -5 17 -10 4 -13 1 -9 -8z"/>
<path d="M4345 5670 c-3 -5 -1 -10 4 -10 6 0 11 5 11 10 0 6 -2 10 -4 10 -3 0
-8 -4 -11 -10z"/>
<path d="M3625 5650 c-3 -5 -1 -10 4 -10 6 0 11 5 11 10 0 6 -2 10 -4 10 -3 0
-8 -4 -11 -10z"/>
<path d="M3462 5630 c-14 -23 1 -36 18 -14 8 9 10 18 4 24 -6 6 -14 2 -22 -10z"/>
<path d="M3545 5619 c-4 -6 -5 -12 -2 -15 2 -3 7 2 10 11 7 17 1 20 -8 4z"/>
<path d="M3610 5620 c0 -5 5 -10 10 -10 6 0 10 5 10 10 0 6 -4 10 -10 10 -5 0
-10 -4 -10 -10z"/>
<path d="M3683 5586 c4 -10 -1 -12 -16 -9 -18 5 -20 3 -9 -8 19 -20 14 -28
-15 -25 -16 1 -27 8 -25 14 1 7 -3 12 -9 12 -6 0 -8 -7 -5 -16 3 -9 6 -20 6
-25 0 -6 6 -7 16 -1 12 6 22 4 33 -7 16 -15 16 -17 -3 -29 -19 -12 -18 -13 14
-8 19 2 29 2 23 -1 -7 -2 -13 -11 -13 -18 0 -8 -7 -21 -16 -29 -9 -10 -11 -16
-4 -16 6 0 18 -6 26 -14 16 -16 19 -30 5 -22 -5 4 -7 -3 -4 -14 7 -25 15 -25
30 0 8 12 9 21 3 25 -12 7 -14 36 -2 34 23 -4 42 3 42 16 0 7 -8 19 -17 24
-15 9 -15 12 -4 20 10 6 10 10 1 16 -6 4 -9 13 -6 21 3 7 1 16 -5 20 -6 3 -14
17 -19 30 -5 13 -15 24 -21 24 -6 0 -9 -6 -6 -14z m57 -130 c0 -3 -4 -8 -10
-11 -5 -3 -10 -1 -10 4 0 6 5 11 10 11 6 0 10 -2 10 -4z m-40 -26 c0 -5 -4
-10 -10 -10 -5 0 -10 5 -10 10 0 6 5 10 10 10 6 0 10 -4 10 -10z"/>
<path d="M4270 5591 c0 -5 5 -13 10 -16 6 -3 10 -2 10 4 0 5 -4 13 -10 16 -5
3 -10 2 -10 -4z"/>
<path d="M3519 5566 c26 -27 41 -33 41 -16 0 6 -7 10 -15 10 -8 0 -15 4 -15 9
0 5 -8 12 -17 15 -13 5 -11 0 6 -18z"/>
<path d="M4235 5515 c0 -13 3 -21 8 -18 4 2 7 10 7 18 0 8 -3 16 -7 18 -5 3
-8 -5 -8 -18z"/>
<path d="M3562 5519 c2 -7 10 -15 17 -17 8 -3 12 1 9 9 -2 7 -10 15 -17 17 -8
3 -12 -1 -9 -9z"/>
<path d="M3610 5501 c0 -5 5 -13 10 -16 6 -3 10 -2 10 4 0 5 -4 13 -10 16 -5
3 -10 2 -10 -4z"/>
<path d="M4275 5500 c-3 -5 -1 -10 4 -10 6 0 11 5 11 10 0 6 -2 10 -4 10 -3 0
-8 -4 -11 -10z"/>
<path d="M4120 5440 c0 -5 5 -10 11 -10 5 0 7 5 4 10 -3 6 -8 10 -11 10 -2 0
-4 -4 -4 -10z"/>
<path d="M3790 5420 c-8 -5 -11 -12 -8 -16 4 -3 14 1 23 10 18 17 9 21 -15 6z"/>
<path d="M3740 5360 c0 -5 7 -10 16 -10 8 0 12 5 9 10 -3 6 -10 10 -16 10 -5
0 -9 -4 -9 -10z"/>
<path d="M3278 5332 c11 -29 62 -88 62 -73 0 8 8 23 18 34 16 20 16 20 -3 13
-35 -13 -38 -12 -52 17 -15 30 -37 38 -25 9z"/>
<path d="M3975 5310 c-19 -7 -19 -7 3 -14 26 -9 41 -1 26 13 -5 5 -18 5 -29 1z"/>
<path d="M4335 5250 c3 -5 11 -10 16 -10 6 0 7 5 4 10 -3 6 -11 10 -16 10 -6
0 -7 -4 -4 -10z"/>
<path d="M4385 5250 c3 -5 8 -10 11 -10 2 0 4 5 4 10 0 6 -5 10 -11 10 -5 0
-7 -4 -4 -10z"/>
<path d="M3371 5241 c-7 -5 -9 -11 -4 -14 4 -3 17 1 28 9 21 16 0 20 -24 5z"/>
<path d="M4240 5242 c0 -4 9 -8 20 -8 11 0 20 4 20 8 0 4 -9 8 -20 8 -11 0
-20 -4 -20 -8z"/>
<path d="M3376 5195 c4 -8 11 -15 16 -15 6 0 5 6 -2 15 -7 8 -14 15 -16 15 -2
0 -1 -7 2 -15z"/>
<path d="M3420 5185 c-8 -9 -8 -15 -2 -15 12 0 26 19 19 26 -2 2 -10 -2 -17
-11z"/>
<path d="M3444 5112 c-11 -10 -19 -22 -17 -29 2 -6 14 -1 29 13 36 37 28 49
-12 16z"/>
<path d="M3450 5046 c0 -2 7 -6 15 -10 8 -3 15 -1 15 4 0 6 -7 10 -15 10 -8 0
-15 -2 -15 -4z"/>
<path d="M3544 4976 c4 -16 2 -26 -4 -26 -6 0 -8 -5 -5 -10 4 -6 11 -8 16 -5
13 9 11 52 -2 61 -9 5 -10 -1 -5 -20z"/>
<path d="M4091 4992 c-1 -7 -5 -10 -11 -7 -6 3 -7 -1 -4 -10 4 -11 10 -13 16
-7 6 6 8 16 5 24 -4 10 -6 10 -6 0z"/>
<path d="M3510 4982 c0 -12 19 -26 26 -19 2 2 -2 10 -11 17 -9 8 -15 8 -15 2z"/>
<path d="M3573 4898 c21 -20 37 -23 37 -8 0 6 -8 10 -18 10 -10 0 -22 3 -28 8
-5 4 -1 -1 9 -10z"/>
<path d="M3600 4851 c0 -5 5 -13 10 -16 6 -3 10 -2 10 4 0 5 -4 13 -10 16 -5
3 -10 2 -10 -4z"/>
<path d="M3641 4801 c13 -11 26 -17 29 -14 6 6 -30 33 -43 33 -5 0 1 -9 14
-19z"/>
<path d="M3771 4727 c-1 -11 91 -99 97 -93 7 8 -8 26 -22 26 -7 0 -18 11 -24
25 -6 14 -18 25 -26 25 -8 0 -17 6 -19 13 -3 6 -6 8 -6 4z"/>
<path d="M3802 4610 c0 -14 2 -19 5 -12 2 6 2 18 0 25 -3 6 -5 1 -5 -13z"/>
<path d="M3981 4614 c0 -11 3 -14 6 -6 3 7 2 16 -1 19 -3 4 -6 -2 -5 -13z"/>
<path d="M4056 4593 c-4 -9 -4 -14 0 -10 4 4 14 1 23 -6 14 -11 15 -10 1 8 -8
11 -15 21 -16 23 -1 2 -5 -5 -8 -15z"/>
<path d="M4424 4484 c3 -9 6 -21 6 -27 0 -7 7 -3 15 7 12 16 12 22 2 28 -20
12 -30 9 -23 -8z"/>
<path d="M4421 4435 c1 -22 16 -48 22 -38 3 5 0 19 -8 29 -8 10 -14 15 -14 9z"/>
<path d="M4532 4360 c-17 -27 -15 -40 6 -39 10 0 12 3 5 6 -10 3 -10 10 -2 25
14 26 7 33 -9 8z"/>
<path d="M4423 4352 c2 -12 9 -28 15 -34 16 -16 14 2 -3 32 -14 24 -15 24 -12
2z"/>
<path d="M4540 4271 c0 -5 7 -12 16 -15 24 -9 28 -7 14 9 -14 17 -30 20 -30 6z"/>
<path d="M4490 4251 c0 -17 24 -51 35 -51 2 0 -1 15 -6 32 -5 18 -9 34 -9 35
0 2 -4 3 -10 3 -5 0 -10 -9 -10 -19z"/>
<path d="M4186 4111 c-6 -9 35 -24 43 -15 6 5 -18 24 -31 24 -4 0 -9 -4 -12
-9z"/>
<path d="M4235 4000 c-3 -5 -1 -10 4 -10 6 0 11 5 11 10 0 6 -2 10 -4 10 -3 0
-8 -4 -11 -10z"/>
<path d="M4470 3971 c0 -12 -4 -21 -9 -21 -5 0 -11 -7 -15 -15 -3 -9 0 -15 9
-15 8 0 15 7 15 16 0 10 6 14 15 10 8 -3 15 -1 15 5 0 6 -7 17 -15 25 -13 14
-15 13 -15 -5z"/>
<path d="M4330 3834 c0 -8 5 -12 10 -9 6 3 10 10 10 16 0 5 -4 9 -10 9 -5 0
-10 -7 -10 -16z"/>
<path d="M4323 3782 c1 -14 5 -18 11 -12 7 7 6 14 -1 21 -9 9 -12 7 -10 -9z"/>
<path d="M6970 4000 c0 -5 5 -10 10 -10 6 0 10 5 10 10 0 6 -4 10 -10 10 -5 0
-10 -4 -10 -10z"/>
<path d="M6833 3893 c-14 -5 -18 -53 -5 -53 14 0 32 23 32 42 0 18 -5 20 -27
11z"/>
<path d="M6824 3818 c-4 -6 -3 -8 4 -4 5 3 13 0 15 -6 3 -8 6 -6 6 5 1 19 -14
23 -25 5z"/>
<path d="M6825 3740 c3 -5 8 -10 11 -10 2 0 4 5 4 10 0 6 -5 10 -11 10 -5 0
-7 -4 -4 -10z"/>
<path d="M7300 3353 c0 -4 5 -15 10 -23 8 -13 10 -13 10 2 0 9 -4 20 -10 23
-5 3 -10 3 -10 -2z"/>
<path d="M7130 2959 c0 -5 5 -7 10 -4 6 3 10 8 10 11 0 2 -4 4 -10 4 -5 0 -10
-5 -10 -11z"/>
<path d="M7160 2958 c0 -9 5 -20 10 -23 13 -8 13 5 0 25 -8 13 -10 13 -10 -2z"/>
<path d="M7175 2910 c3 -5 8 -10 11 -10 2 0 4 5 4 10 0 6 -5 10 -11 10 -5 0
-7 -4 -4 -10z"/>
<path d="M6720 2484 c0 -8 5 -12 10 -9 6 4 8 11 5 16 -9 14 -15 11 -15 -7z"/>
<path d="M7690 942 c0 -5 7 -9 15 -9 8 0 15 4 15 9 0 4 -7 8 -15 8 -8 0 -15
-4 -15 -8z"/>
<path d="M7740 925 c7 -8 17 -12 22 -9 6 4 5 10 -3 15 -22 14 -33 10 -19 -6z"/>
<path d="M7786 922 c-3 -5 1 -15 9 -22 16 -14 20 -3 6 19 -5 8 -11 9 -15 3z"/>
<path d="M7877 803 c-10 -15 24 -26 37 -12 8 9 7 10 -6 6 -9 -3 -18 -1 -21 6
-2 8 -5 8 -10 0z"/>
<path d="M7234 956 c-4 -11 -2 -21 7 -27 18 -11 24 5 10 28 -9 17 -10 17 -17
-1z"/>
<path d="M6616 11861 c-3 -5 1 -14 8 -20 12 -10 13 -8 9 8 -6 23 -9 25 -17 12z"/>
<path d="M6580 11841 c0 -5 7 -11 14 -14 10 -4 13 -1 9 9 -6 15 -23 19 -23 5z"/>
<path d="M6980 11589 c0 -6 -6 -7 -12 -3 -10 5 -10 4 -1 -6 7 -8 16 -9 28 -3
16 9 16 11 1 16 -9 4 -16 2 -16 -4z"/>
<path d="M7880 10215 c0 -8 5 -15 10 -15 6 0 10 7 10 15 0 8 -4 15 -10 15 -5
0 -10 -7 -10 -15z"/>
<path d="M7930 10170 c-13 -8 -13 -11 -1 -19 7 -5 11 -13 7 -19 -3 -6 -1 -14
4 -17 6 -4 16 -19 22 -33 9 -22 12 -24 15 -9 3 10 -2 33 -10 50 -8 18 -16 37
-18 44 -3 9 -9 9 -19 3z"/>
<path d="M8000 9979 c0 -14 5 -30 11 -36 7 -7 13 -22 14 -35 2 -13 9 -43 16
-68 9 -31 14 -39 17 -25 4 20 -35 162 -50 180 -4 5 -8 -2 -8 -16z"/>
<path d="M8076 9754 c-9 -22 -8 -24 9 -24 8 0 15 6 15 14 0 22 -17 28 -24 10z"/>
<path d="M2759 9263 c-13 -16 -12 -17 4 -4 9 7 17 15 17 17 0 8 -8 3 -21 -13z"/>
<path d="M2660 8999 c0 -5 5 -7 10 -4 6 3 10 8 10 11 0 2 -4 4 -10 4 -5 0 -10
-5 -10 -11z"/>
<path d="M2629 8973 c-13 -16 -12 -17 4 -4 9 7 17 15 17 17 0 8 -8 3 -21 -13z"/>
<path d="M7933 8953 c1 -20 3 -31 5 -24 2 6 8 9 13 5 14 -9 10 26 -5 41 -12
12 -14 9 -13 -22z"/>
<path d="M2504 8888 l-19 -23 23 19 c21 18 27 26 19 26 -2 0 -12 -10 -23 -22z"/>
<path d="M7979 8243 c-1 -18 -3 -21 -6 -10 -2 9 -9 15 -13 12 -5 -3 -5 -16 0
-30 6 -15 6 -27 0 -30 -6 -4 -10 -3 -10 0 0 15 -30 -25 -35 -48 -4 -14 -16
-35 -27 -47 -11 -12 -18 -24 -15 -26 6 -6 47 50 47 63 0 11 41 48 61 55 14 5
21 88 7 88 -4 0 -9 -12 -9 -27z"/>
<path d="M8057 8263 c-10 -10 -8 -55 2 -49 5 3 11 17 13 31 5 24 -2 32 -15 18z"/>
<path d="M1925 8030 c-3 -5 -1 -10 4 -10 6 0 11 5 11 10 0 6 -2 10 -4 10 -3 0
-8 -4 -11 -10z"/>
<path d="M7835 8030 c3 -5 8 -10 11 -10 2 0 4 5 4 10 0 6 -5 10 -11 10 -5 0
-7 -4 -4 -10z"/>
<path d="M7792 7995 c-7 -8 -10 -15 -7 -15 4 0 -3 -14 -15 -31 -12 -16 -20
-32 -18 -35 5 -5 78 80 78 90 0 11 -25 5 -38 -9z"/>
<path d="M7692 7867 c-39 -41 -43 -61 -4 -24 16 15 30 25 33 23 3 -3 10 4 17
14 20 33 -10 24 -46 -13z"/>
<path d="M7637 7795 c3 -8 9 -12 14 -9 12 7 11 11 -5 17 -10 4 -13 1 -9 -8z"/>
<path d="M341 7720 c27 -42 78 -97 61 -65 -7 11 -28 38 -48 60 -36 39 -36 39
-13 5z"/>
<path d="M425 7606 c10 -14 19 -26 22 -26 7 0 -17 39 -28 46 -6 3 -3 -5 6 -20z"/>
<path d="M1041 6876 c-8 -9 -11 -19 -7 -23 9 -9 29 13 24 27 -2 8 -8 7 -17 -4z"/>
<path d="M785 6650 c-4 -6 -21 -20 -38 -30 -25 -16 -28 -20 -14 -25 9 -4 22
-2 29 4 7 7 21 17 30 24 12 8 15 17 9 26 -6 10 -10 10 -16 1z"/>
<path d="M690 6570 c-8 -5 -11 -12 -7 -16 4 -4 13 -2 19 4 15 15 7 24 -12 12z"/>
<path d="M515 6440 c-3 -5 1 -10 9 -10 8 0 18 5 21 10 3 6 -1 10 -9 10 -8 0
-18 -4 -21 -10z"/>
<path d="M7316 6205 c-3 -9 -6 -24 -5 -33 0 -9 5 -4 10 12 9 32 6 48 -5 21z"/>
<path d="M35 6110 c-3 -6 1 -7 9 -4 18 7 21 14 7 14 -6 0 -13 -4 -16 -10z"/>
<path d="M745 5810 c-3 -5 -1 -10 4 -10 6 0 11 5 11 10 0 6 -2 10 -4 10 -3 0
-8 -4 -11 -10z"/>
<path d="M2265 5750 c-4 -6 1 -13 9 -16 9 -3 16 -12 16 -20 0 -16 9 -18 30 -4
10 6 11 10 3 10 -7 0 -22 9 -33 20 -11 11 -22 15 -25 10z"/>
<path d="M2216 5736 c10 -8 21 -12 24 -10 5 6 -21 24 -34 24 -6 0 -1 -6 10
-14z"/>
<path d="M2344 5739 c-3 -6 -1 -16 6 -22 10 -9 12 -8 7 5 -3 9 -1 19 6 22 9 3
9 5 0 5 -6 1 -15 -4 -19 -10z"/>
<path d="M2180 5730 c0 -12 28 -25 36 -17 3 3 -4 10 -15 17 -15 7 -21 7 -21 0z"/>
<path d="M2140 5715 c-7 -9 -11 -16 -9 -18 43 -24 47 -26 52 -14 5 12 -14 47
-25 47 -3 0 -11 -7 -18 -15z"/>
<path d="M1174 5708 c-5 -7 -3 -8 5 -4 7 5 21 0 33 -11 21 -18 21 -18 7 5 -15
24 -34 29 -45 10z"/>
<path d="M2271 5710 c0 -8 4 -22 9 -30 12 -18 12 -2 0 25 -6 13 -9 15 -9 5z"/>
<path d="M1345 5690 c-3 -5 1 -10 10 -10 9 0 13 5 10 10 -3 6 -8 10 -10 10 -2
0 -7 -4 -10 -10z"/>
<path d="M2030 5659 c0 -15 18 -19 23 -6 3 8 -1 14 -9 14 -8 0 -14 -4 -14 -8z"/>
<path d="M1305 3550 c3 -5 8 -10 11 -10 2 0 4 5 4 10 0 6 -5 10 -11 10 -5 0
-7 -4 -4 -10z"/>
<path d="M1420 3340 c0 -5 5 -10 11 -10 5 0 7 5 4 10 -3 6 -8 10 -11 10 -2 0
-4 -4 -4 -10z"/>
<path d="M1415 2660 c-3 -5 1 -10 9 -10 9 0 16 5 16 10 0 6 -4 10 -9 10 -6 0
-13 -4 -16 -10z"/>
<path d="M6995 2526 c-11 -8 -25 -12 -32 -9 -7 3 -13 0 -13 -6 0 -23 31 -24
52 -2 24 26 20 37 -7 17z"/>
<path d="M7540 2470 c0 -5 5 -10 11 -10 5 0 7 5 4 10 -3 6 -8 10 -11 10 -2 0
-4 -4 -4 -10z"/>
<path d="M7435 2443 c8 -18 18 -33 20 -33 10 0 4 16 -16 40 l-20 25 16 -32z"/>
<path d="M7476 2405 c4 -8 12 -15 20 -15 8 0 11 6 8 15 -4 8 -12 15 -20 15 -8
0 -11 -6 -8 -15z"/>
<path d="M7723 2302 c14 -13 31 -22 38 -20 9 4 5 10 -13 18 -15 7 -25 16 -23
20 2 4 -3 7 -11 7 -11 0 -8 -7 9 -25z"/>
<path d="M6970 2291 c0 -9 24 -21 42 -21 6 0 6 6 -2 15 -14 16 -40 20 -40 6z"/>
<path d="M6926 2282 c-26 -3 -56 -22 -56 -35 0 -3 9 -3 20 0 16 4 20 0 21 -18
l0 -24 12 25 c6 14 18 30 27 37 19 15 12 19 -24 15z"/>
<path d="M7100 2143 c1 -27 1 -27 15 -9 19 25 19 36 0 36 -10 0 -15 -10 -15
-27z"/>
<path d="M6931 2134 c0 -11 3 -14 6 -6 3 7 2 16 -1 19 -3 4 -6 -2 -5 -13z"/>
<path d="M7821 2124 c0 -11 3 -14 6 -6 3 7 2 16 -1 19 -3 4 -6 -2 -5 -13z"/>
<path d="M8091 2054 c0 -11 3 -14 6 -6 3 7 2 16 -1 19 -3 4 -6 -2 -5 -13z"/>
<path d="M6996 2021 c-4 -7 -5 -15 -2 -18 9 -9 19 4 14 18 -4 11 -6 11 -12 0z"/>
<path d="M6690 1975 c-7 -9 -8 -15 -2 -15 5 0 12 7 16 15 3 8 4 15 2 15 -2 0
-9 -7 -16 -15z"/>
<path d="M7011 1933 c-8 -18 -9 -29 -1 -37 5 -5 10 -8 11 -5 6 40 8 69 6 69
-2 0 -9 -12 -16 -27z"/>
<path d="M6980 1876 c0 -8 4 -17 8 -20 4 -2 8 4 8 15 0 10 -4 19 -8 19 -4 0
-8 -6 -8 -14z"/>
<path d="M6710 1810 c0 -5 4 -10 9 -10 6 0 13 5 16 10 3 6 -1 10 -9 10 -9 0
-16 -4 -16 -10z"/>
<path d="M8186 1575 c-3 -8 -1 -15 4 -15 6 0 10 7 10 15 0 8 -2 15 -4 15 -2 0
-6 -7 -10 -15z"/>
<path d="M8140 1520 c0 -5 5 -10 10 -10 6 0 10 5 10 10 0 6 -4 10 -10 10 -5 0
-10 -4 -10 -10z"/>
<path d="M6890 1389 c0 -5 5 -7 10 -4 6 3 10 8 10 11 0 2 -4 4 -10 4 -5 0 -10
-5 -10 -11z"/>
<path d="M8100 1226 c0 -8 5 -18 10 -21 6 -3 10 1 10 9 0 8 -4 18 -10 21 -5 3
-10 -1 -10 -9z"/>
<path d="M8140 1165 c0 -39 15 -48 22 -12 5 27 0 47 -13 47 -5 0 -9 -16 -9
-35z"/>
<path d="M8186 953 c-4 -9 -2 -21 4 -27 7 -7 10 -2 10 17 0 31 -5 34 -14 10z"/>
<path d="M8191 894 c0 -11 3 -14 6 -6 3 7 2 16 -1 19 -3 4 -6 -2 -5 -13z"/>
<path d="M7015 809 c-4 -6 -13 -8 -20 -5 -7 2 -16 -1 -19 -9 -3 -8 4 -17 17
-21 26 -8 54 -34 36 -34 -13 0 -49 -38 -49 -52 0 -4 5 -8 10 -8 6 0 10 6 10
14 0 19 53 53 58 38 6 -19 25 -14 50 12 26 28 28 36 7 36 -8 0 -19 -9 -25 -20
-6 -11 -15 -20 -20 -20 -19 0 -50 44 -44 62 6 20 -1 24 -11 7z"/>
<path d="M7442 808 c3 -7 15 -15 28 -16 21 -3 22 -2 11 12 -16 19 -44 21 -39
4z"/>
<path d="M8216 802 c-4 -13 -5 -26 -2 -29 10 -11 18 4 14 29 l-4 23 -8 -23z"/>
<path d="M7499 760 c13 -11 28 -20 35 -20 6 0 0 9 -14 20 -33 26 -52 25 -21 0z"/>
<path d="M7142 734 c-28 -44 -28 -50 3 -30 23 15 30 13 26 -7 -1 -5 3 -5 9 -2
6 4 20 -1 31 -11 17 -16 22 -16 29 -4 15 23 12 29 -10 23 -16 -4 -19 -2 -14
12 6 14 3 16 -14 10 -18 -5 -22 -2 -22 14 0 33 -14 31 -38 -5z"/>
<path d="M6810 730 c-6 -11 -7 -20 -3 -20 5 0 14 9 21 20 7 11 8 20 2 20 -5 0
-14 -9 -20 -20z"/>
<path d="M1540 710 c0 -5 7 -10 16 -10 8 0 12 5 9 10 -3 6 -10 10 -16 10 -5 0
-9 -4 -9 -10z"/>
<path d="M7027 693 c-12 -12 -7 -22 8 -17 8 4 15 10 15 15 0 11 -14 12 -23 2z"/>
<path d="M7385 660 c3 -5 11 -10 16 -10 6 0 7 5 4 10 -3 6 -11 10 -16 10 -6 0
-7 -4 -4 -10z"/>
<path d="M7145 651 c-3 -5 -1 -12 5 -16 5 -3 10 -1 10 5 0 6 5 8 12 4 7 -4 8
-3 4 4 -9 14 -23 15 -31 3z"/>
<path d="M7310 625 c0 -8 5 -15 10 -15 6 0 10 7 10 15 0 8 -4 15 -10 15 -5 0
-10 -7 -10 -15z"/>
<path d="M7506 605 c-3 -8 -1 -15 4 -15 6 0 10 7 10 15 0 8 -2 15 -4 15 -2 0
-6 -7 -10 -15z"/>
<path d="M7280 589 c0 -5 5 -7 10 -4 6 3 10 8 10 11 0 2 -4 4 -10 4 -5 0 -10
-5 -10 -11z"/>
<path d="M7550 590 c0 -5 5 -10 11 -10 5 0 7 5 4 10 -3 6 -8 10 -11 10 -2 0
-4 -4 -4 -10z"/>
<path d="M7520 571 c0 -9 30 -24 36 -18 2 1 -6 8 -16 15 -11 7 -20 8 -20 3z"/>
<path d="M7590 565 c7 -8 20 -15 29 -15 13 1 13 3 -3 15 -26 19 -42 19 -26 0z"/>
<path d="M7240 550 c-9 -6 -10 -10 -3 -10 6 0 15 5 18 10 8 12 4 12 -15 0z"/>
<path d="M6780 341 c0 -7 -4 -10 -8 -7 -4 2 -14 1 -22 -4 -11 -7 -11 -11 2
-23 14 -14 17 -13 27 10 6 14 9 28 6 31 -3 3 -5 0 -5 -7z"/>
<path d="M6950 320 c0 -5 5 -10 11 -10 5 0 7 5 4 10 -3 6 -8 10 -11 10 -2 0
-4 -4 -4 -10z"/>
<path d="M8010 309 c0 -5 5 -7 10 -4 6 3 10 8 10 11 0 2 -4 4 -10 4 -5 0 -10
-5 -10 -11z"/>
<path d="M8097 203 c-4 -3 -7 -15 -7 -25 0 -21 25 -24 33 -4 4 10 1 13 -9 9
-10 -4 -12 0 -8 11 6 17 2 21 -9 9z"/>
<path d="M7300 32 c0 -7 6 -12 13 -12 8 0 7 -4 -3 -10 -11 -7 -6 -10 20 -9 19
0 28 3 20 6 -8 3 -23 12 -32 21 -12 10 -18 11 -18 4z"/>
<path d="M8100 20 c0 -23 35 -28 43 -6 7 18 -1 26 -25 26 -11 0 -18 -7 -18
-20z"/>
<path d="M8200 30 c0 -5 5 -10 11 -10 5 0 7 5 4 10 -3 6 -8 10 -11 10 -2 0 -4
-4 -4 -10z"/>
<path d="M7439 26 c-2 -3 -17 -7 -33 -10 -42 -8 -45 -17 -5 -15 46 2 69 9 69
20 0 9 -23 13 -31 5z"/>
</g>
</svg>
